;TYPE=PLATED
;Layer: PTH_Through_Via
;EasyEDA Pro v2.2.27.1, 2024-09-16 11:55:18
;Gerber Generator version 0.3
M48
METRIC,LZ,000.00000
;Hole size 1 = 0.30500 METRIC
T01C0.30500
%
G05
G90
T01
X19.431Y-15.621
X24.70236Y-10.15954
X43.053Y-5.842
X35.65446Y-5.842
X34.9471Y-6.34904
X24.511Y-7.874
X28.575Y-7.88408
X24.511Y-8.526
X28.321Y-8.509
X31.6234Y-6.81605
X30.869Y-7.43549
X17.653Y-15.367
X10.97001Y-13.462
X10.97001Y-4.318
X6.31203Y-4.96608
X6.31203Y-9.76617
X4.82237Y-0.762
X2.76533Y-0.762
X3.45101Y-0.762
X4.13669Y-0.762
X4.82237Y-1.651
X2.76533Y-1.651
X3.45101Y-1.651
X4.13669Y-1.651
X17.16449Y-5.334
X15.10746Y-5.334
X15.79314Y-5.334
X16.47882Y-5.334
X19.06949Y-9.906
X17.01246Y-9.906
X17.69814Y-9.906
X18.38382Y-9.906
X22.11749Y-9.906
X20.06046Y-9.906
X20.74614Y-9.906
X21.43182Y-9.906
X11.95749Y-19.431
X9.90046Y-19.431
X10.58614Y-19.431
X11.27182Y-19.431
X26.05449Y-13.081
X23.99746Y-13.081
X24.68314Y-13.081
X25.36882Y-13.081
X18.94249Y-13.335
X16.88546Y-13.335
X17.57114Y-13.335
X18.25682Y-13.335
X38.11949Y-1.778
X36.06246Y-1.778
X36.74814Y-1.778
X37.43382Y-1.778
X43.07249Y-1.778
X41.01546Y-1.778
X41.70114Y-1.778
X42.38682Y-1.778
X43.18Y-2.77451
X43.18Y-4.83154
X43.18Y-4.14586
X43.18Y-3.46018
X36.068Y-2.77451
X36.068Y-4.83154
X36.068Y-4.14586
X36.068Y-3.46018
X43.18Y-7.34651
X43.18Y-9.40354
X43.18Y-8.71786
X43.18Y-8.03218
X44.59649Y-11.811
X42.53946Y-11.811
X43.22514Y-11.811
X43.91082Y-11.811
X35.92151Y-15.367
X37.97854Y-15.367
X37.29286Y-15.367
X36.60718Y-15.367
X63.64649Y-0.889
X61.58946Y-0.889
X62.27514Y-0.889
X62.96082Y-0.889
X59.83649Y-0.889
X57.77946Y-0.889
X58.46514Y-0.889
X59.15082Y-0.889
X55.89949Y-0.889
X53.84246Y-0.889
X54.52814Y-0.889
X55.21382Y-0.889
X53.213Y-6.20351
X53.213Y-8.26054
X53.213Y-7.57486
X53.213Y-6.88918
X54.991Y-6.20351
X54.991Y-8.26054
X54.991Y-7.57486
X54.991Y-6.88918
X29.718Y-10.90251
X29.718Y-12.95954
X29.718Y-12.27386
X29.718Y-11.58818
X27.178Y-0.61551
X27.178Y-2.67254
X27.178Y-1.98686
X27.178Y-1.30118
X23.495Y-3.53651
X23.495Y-5.59354
X23.495Y-4.90786
X23.495Y-4.22218
M30