G04 Layer: TopLayer*
G04 EasyEDA Pro v2.2.27.1, 2024-09-16 11:55:17*
G04 Gerber Generator version 0.3*
G04 Scale: 100 percent, Rotated: No, Reflected: No*
G04 Dimensions in millimeters*
G04 Leading zeros omitted, absolute positions, 3 integers and 5 decimals*
%FSLAX35Y35*%
%MOMM*%
%ADD10C,0.2032*%
%ADD11C,0.254*%
%ADD12R,0.8X0.9*%
%ADD13R,0.9X0.8*%
%ADD14R,0.8X0.9*%
%ADD15R,1.2X0.25001*%
%ADD16C,1.6*%
%ADD17O,1.524X2.99999*%
%ADD18O,2.99999X1.524*%
%ADD19C,3.3002*%
%ADD20C,3.29999*%
%ADD21R,1.1X0.55001*%
%ADD22R,1.1X0.3*%
%ADD23O,2.0X1.1*%
%ADD24O,1.8X1.2*%
%ADD25R,1.3X5.49999*%
%ADD26R,0.9X0.8*%
%ADD27R,0.8001X0.8001*%
%ADD28R,0.80648X0.86401*%
%ADD29R,0.86401X0.80648*%
%ADD30R,1.19009X1.72799*%
%ADD31C,0.61*%
%ADD32C,0.5*%
%ADD33C,0.55*%
%ADD34C,0.2*%
%ADD35C,0.22*%
G75*


G04 Copper Start*
G36*
G01X126197Y-208288D02*
G03X37894Y-266916I0J-95814D01*
G02X300000Y-35814I262106J-33084D01*
G01X1932177Y-35814D01*
G01X1870428Y-97563D01*
G01X1868078Y-99722D01*
G01X1853379Y-96586D01*
G03X1850271Y-96065I-7473J-35026D01*
G01X1849510Y-95971D01*
G03X1839450Y-94738I-19110J-114226D01*
G03X1836286Y-94524I-4000J-35590D01*
G01X1835908Y-94515D01*
G03X1830289Y-94384I-5507J-115683D01*
G01X1828055Y-94408D01*
G03X1751122Y-294624I2345J-115790D01*
G03X1930377Y-268577I79239J84520D01*
G03X1949433Y-293006I100023J58380D01*
G01X1951188Y-294699D01*
G01X1951607Y-295077D01*
G03X1954134Y-297355I78793J84880D01*
G01X1955547Y-298629D01*
G03X1958005Y-300653I23978J26603D01*
G01X1959687Y-301918D01*
G03X1961943Y-303613I70713J91720D01*
G01X1966483Y-307026D01*
G01X1968484Y-308426D01*
G01X1981742Y-317045D01*
G01X1981886Y-320316D01*
G01X1981886Y-526539D01*
G03X1996095Y-560844I48514J0D01*
G01X2048495Y-613244D01*
G03X2082800Y-627453I34305J34305D01*
G01X2181425Y-627453D01*
G01X2181425Y-693239D01*
G03X2186986Y-715792I48514J0D01*
G01X847014Y-715792D01*
G02X833214Y-691606I14294J24186D01*
G01X833214Y-686619D01*
G03X819795Y-654224I-45814J0D01*
G01X799795Y-634224D01*
G03X774151Y-621305I-32395J-32395D01*
G01X785438Y-610019D01*
G02X802665Y-604898I17226J-26418D01*
G01X841287Y-604898D01*
G03X876300Y-576618I0J35814D01*
G03X911313Y-604898I35013J7534D01*
G01X991960Y-604898D01*
G03X1027774Y-569084I0J35814D01*
G01X1027774Y-495114D01*
G01X1059759Y-495114D01*
G01X1071187Y-495523D01*
G01X1080805Y-496415D01*
G01X1083685Y-496764D01*
G03X1163315Y-431800I13315J64964D01*
G03X1083685Y-366836I-66314J0D01*
G01X1080805Y-367185D01*
G01X1071187Y-368077D01*
G01X1059759Y-368486D01*
G01X991426Y-368486D01*
G01X967705Y-344765D01*
G02X972053Y-330641I101575J-23535D01*
G02X1003300Y-325202I57147J-235863D01*
G02X1049291Y-334709I-25900J-241302D01*
G03X1059900Y-336316I10609J34207D01*
G01X1149900Y-336316D01*
G03X1160509Y-334709I0J35814D01*
G02X1195010Y-326714I71891J-231795D01*
G03X1183386Y-376403I100390J-49689D01*
G01X1183386Y-524002D01*
G03X1407414Y-524002I112014J0D01*
G01X1407414Y-376403D01*
G03X1394303Y-323816I-112014J0D01*
G01X1473888Y-323816D01*
G01X1524824Y-324445D01*
G01X1575738Y-325917D01*
G03X1669438Y-136121I4675J115719D01*
G03X1465772Y-193761I-89025J-74077D01*
G01X1462546Y-195024D01*
G01X1457850Y-196144D01*
G01X1451837Y-196903D01*
G01X1444395Y-197188D01*
G01X1363908Y-197188D01*
G03X1344650Y-194188I-19258J-60314D01*
G01X1246150Y-194188D01*
G03X1227076Y-197130I0J-63314D01*
G02X1171144Y-189330I5324J242629D01*
G03X1185714Y-160498I-21244J28833D01*
G01X1185714Y-80498D01*
G03X1149900Y-44684I-35814J0D01*
G01X1059900Y-44684D01*
G03X1024086Y-80498I0J-35814D01*
G01X1024086Y-160498D01*
G03X1038656Y-189330I35814J0D01*
G02X1003300Y-195802I-61256J234830D01*
G02X967944Y-189330I25900J241302D01*
G03X982514Y-160498I-21244J28833D01*
G01X982514Y-80498D01*
G03X946700Y-44684I-35814J0D01*
G01X856700Y-44684D01*
G03X820886Y-80498I0J-35814D01*
G01X820886Y-160498D01*
G03X837143Y-190500I35814J0D01*
G03X820886Y-220502I19557J-30002D01*
G01X820886Y-300502D01*
G03X825360Y-317836I35814J0D01*
G02X838386Y-368300I-91240J-50464D01*
G03X856930Y-413070I63314J0D01*
G01X894776Y-450916D01*
G03X876300Y-475150I16536J-31768D01*
G03X841287Y-446870I-35013J-7534D01*
G01X760640Y-446870D01*
G03X724826Y-482684I0J-35814D01*
G01X724826Y-521307D01*
G02X720684Y-536929I-31538J0D01*
G01X720204Y-535358D01*
G03X722017Y-524109I-34002J11249D01*
G01X722017Y-469108D01*
G03X719763Y-456603I-35814J0D01*
G03X722017Y-444099I-33560J12504D01*
G01X722017Y-389098D01*
G03X696549Y-354811I-35814J0D01*
G03X621212Y-213288I-75338J50709D01*
G01X531212Y-213288D01*
G03X490545Y-385301I0J-90814D01*
G03X457991Y-472753I33648J-62311D01*
G03X540389Y-516550I66202J25141D01*
G01X540389Y-524109D01*
G03X542201Y-535358I35814J0D01*
G03X540389Y-546607I34002J-11249D01*
G01X540389Y-576607D01*
G03X541815Y-586613I35814J0D01*
G03X540389Y-596619I34388J-10006D01*
G01X540389Y-626619D01*
G03X541811Y-636613I35814J0D01*
G03X540389Y-646607I34391J-9994D01*
G01X540389Y-676692D01*
G03X530342Y-684402I24257J-42014D01*
G01X513998Y-700745D01*
G03X499789Y-735050I34305J-34305D01*
G01X499789Y-788163D01*
G03X513998Y-822467I48514J0D01*
G01X530342Y-838811D01*
G03X540389Y-846521I34305J34305D01*
G01X540389Y-876606D01*
G03X541815Y-886612I35814J0D01*
G03X540389Y-896619I34388J-10006D01*
G01X540389Y-926619D01*
G03X542201Y-937868I35814J0D01*
G03X540389Y-949117I34002J-11249D01*
G01X540389Y-956676D01*
G03X457995Y-1000459I-16196J-68938D01*
G03X490520Y-1087911I66197J-25154D01*
G03X531212Y-1259912I40692J-81187D01*
G01X621212Y-1259912D01*
G03X696549Y-1118389I0J90814D01*
G03X722017Y-1084102I-10347J34287D01*
G01X722017Y-1052856D01*
G01X729709Y-1060548D01*
G01X729709Y-1137200D01*
G03X731316Y-1147809I35814J0D01*
G02X740796Y-1193553I-231793J-71891D01*
G02X720815Y-1237075I-92787J16252D01*
G03X712681Y-1259801I27680J-22726D01*
G01X712681Y-1432599D01*
G03X748495Y-1468413I35814J0D01*
G01X867504Y-1468413D01*
G03X903318Y-1432599I0J35814D01*
G01X903318Y-1259801D01*
G03X892666Y-1234315I-35814J0D01*
G02X870339Y-1192742I56292J57015D01*
G02X876695Y-1158444I241184J-26958D01*
G03X905528Y-1173014I28833J21244D01*
G01X985528Y-1173014D01*
G03X1021342Y-1137200I0J35814D01*
G01X1021342Y-1047200D01*
G03X985528Y-1011386I-35814J0D01*
G01X905528Y-1011386D01*
G03X875525Y-1027643I0J-35814D01*
G03X859906Y-1014401I-30002J-19557D01*
G03X850293Y-1002053I-54383J-32422D01*
G01X803170Y-954931D01*
G01X1076368Y-954931D01*
G01X1189777Y-1076428D01*
G02X1194726Y-1095530I-34392J-19102D01*
G01X1194726Y-1135400D01*
G03X1230540Y-1171214I35814J0D01*
G01X1311187Y-1171214D01*
G03X1346200Y-1142934I0J35814D01*
G03X1381213Y-1171214I35013J7534D01*
G01X1461860Y-1171214D01*
G03X1497674Y-1135400I0J35814D01*
G01X1497674Y-1049000D01*
G03X1461860Y-1013186I-35814J0D01*
G01X1381213Y-1013186D01*
G03X1346200Y-1041466I0J-35814D01*
G03X1311187Y-1013186I-35013J-7534D01*
G01X1273972Y-1013186D01*
G02X1258627Y-1007993I0J25268D01*
G01X1144208Y-885414D01*
G01X2399899Y-885414D01*
G03X2426691Y-908300I51201J32814D01*
G01X1992382Y-1342609D01*
G03X1978172Y-1376914I34305J-34305D01*
G01X1978172Y-1505820D01*
G03X1876971Y-1557152I-35072J-56280D01*
G01X1876648Y-1559942D01*
G01X1792382Y-1644209D01*
G03X1778173Y-1678513I34305J-34305D01*
G01X1778173Y-1724384D01*
G01X1778029Y-1727655D01*
G01X1764771Y-1736274D01*
G01X1762770Y-1737674D01*
G01X1758229Y-1741087D01*
G03X1755974Y-1742782I68457J-93415D01*
G01X1754292Y-1744047D01*
G03X1751834Y-1746071I21520J-28628D01*
G01X1750421Y-1747345D01*
G03X1747894Y-1749623I76266J-87157D01*
G01X1747475Y-1750001D01*
G01X1745720Y-1751694D01*
G03X1755434Y-1925804I80967J-82808D01*
G03X1926687Y-1892922I71252J91301D01*
G03X2097939Y-1925804I100000J58420D01*
G03X2107653Y-1751694I-71252J91301D01*
G01X2105898Y-1750001D01*
G01X2105479Y-1749623D01*
G03X2102952Y-1747345I-78793J-84880D01*
G01X2101539Y-1746071D01*
G03X2099081Y-1744047I-23978J-26603D01*
G01X2097399Y-1742782D01*
G03X2095144Y-1741087I-70713J-91720D01*
G01X2090603Y-1737674D01*
G01X2088602Y-1736274D01*
G01X2075344Y-1727655D01*
G01X2075200Y-1724384D01*
G01X2075200Y-1397009D01*
G01X2416878Y-1055331D01*
G03X2489850Y-1079301I53358J39377D01*
G03X2536509Y-1018291I-19614J63347D01*
G01X2571984Y-982816D01*
G01X2571984Y-1048300D01*
G03X2607798Y-1084114I35814J0D01*
G01X2687798Y-1084114D01*
G03X2717800Y-1067857I0J35814D01*
G01X2718007Y-1068171D01*
G02X2736975Y-1130800I-93909J-62629D01*
G01X2736975Y-1561600D01*
G02X2726014Y-1633417I-240756J0D01*
G03X2724384Y-1644100I34184J-10683D01*
G01X2724384Y-1734100D01*
G03X2726014Y-1744783I35814J0D01*
G02X2732653Y-1771188I-229795J-71817D01*
G01X2605965Y-1771188D01*
G03X2673701Y-1668297I-44279J102891D01*
G01X2673701Y-1520698D01*
G03X2449673Y-1520698I-112014J0D01*
G01X2449673Y-1668297D01*
G03X2517408Y-1771188I112014J0D01*
G01X2387508Y-1771188D01*
G01X2383491Y-1770851D01*
G01X2381449Y-1770317D01*
G01X2379070Y-1769267D01*
G01X2375879Y-1767318D01*
G01X2371744Y-1764196D01*
G01X2366683Y-1759849D01*
G01X2355382Y-1749545D01*
G03X2160859Y-1834502I-78709J-84957D01*
G03X2355382Y-1919460I115814J0D01*
G01X2366683Y-1909156D01*
G01X2371744Y-1904808D01*
G01X2375879Y-1901687D01*
G01X2379070Y-1899737D01*
G01X2381449Y-1898688D01*
G01X2383491Y-1898154D01*
G01X2387508Y-1897816D01*
G01X2709396Y-1897816D01*
G02X2724494Y-1943428I-69722J-48384D01*
G03X2760289Y-1978072I35795J1170D01*
G01X2840289Y-1978072D01*
G03X2870291Y-1961815I0J35814D01*
G03X2900294Y-1978072I30002J19557D01*
G01X2980294Y-1978072D01*
G03X3016108Y-1942258I0J35814D01*
G01X3016108Y-1852258D01*
G03X2980294Y-1816444I-35814J0D01*
G01X2900294Y-1816444D01*
G03X2871461Y-1831014I0J-35814D01*
G02X2864731Y-1793132I234830J61256D01*
G02X2871389Y-1755370I243520J-23468D01*
G03X2900202Y-1769914I28813J21270D01*
G01X2980202Y-1769914D01*
G03X3016016Y-1734100I0J35814D01*
G01X3016016Y-1644100D01*
G03X2980202Y-1608286I-35814J0D01*
G01X2900202Y-1608286D01*
G03X2871389Y-1622830I0J-35814D01*
G02X2863603Y-1561600I236862J61230D01*
G01X2863603Y-1549002D01*
G02X2992789Y-1511114I129186J-201298D01*
G01X3021774Y-1511114D01*
G01X3194521Y-1683861D01*
G03X3239291Y-1702405I44770J44770D01*
G01X4050509Y-1702405D01*
G03X4095279Y-1683861I0J63314D01*
G01X4134170Y-1644970D01*
G03X4152714Y-1600200I-44770J44770D01*
G01X4152714Y-1448626D01*
G01X4172928Y-1428412D01*
G01X4177800Y-1428412D01*
G02X4239056Y-1436270I0J-242688D01*
G03X4224486Y-1465102I21244J-28833D01*
G01X4224486Y-1545102D01*
G03X4260300Y-1580916I35814J0D01*
G01X4350300Y-1580916D01*
G03X4386114Y-1545102I0J35814D01*
G01X4386114Y-1465102D01*
G03X4371544Y-1436270I-35814J0D01*
G02X4400550Y-1430564I61256J-234830D01*
G02X4429556Y-1436270I-32250J-240535D01*
G03X4414986Y-1465102I21244J-28833D01*
G01X4414986Y-1545102D01*
G03X4450800Y-1580916I35814J0D01*
G01X4540800Y-1580916D01*
G03X4576614Y-1545102I0J35814D01*
G01X4576614Y-1465102D01*
G03X4562044Y-1436270I-35814J0D01*
G02X4623300Y-1428412I61256J-234830D01*
G01X4672105Y-1428412D01*
G01X4676172Y-1428749D01*
G01X4678219Y-1429280D01*
G01X4680567Y-1430310D01*
G01X4683731Y-1432232D01*
G01X4687868Y-1435336D01*
G01X4692998Y-1439702D01*
G01X4704001Y-1449559D01*
G03X4860907Y-1449087I78197J85429D01*
G01X4872207Y-1438783D01*
G01X4877269Y-1434436D01*
G01X4881403Y-1431314D01*
G01X4884595Y-1429365D01*
G01X4886973Y-1428315D01*
G01X4889016Y-1427781D01*
G01X4893033Y-1427444D01*
G01X5186741Y-1427444D01*
G02X5248267Y-1436080I0J-223469D01*
G03X5233427Y-1465110I20974J-29030D01*
G01X5233427Y-1545110D01*
G03X5269241Y-1580924I35814J0D01*
G01X5359241Y-1580924D01*
G03X5395055Y-1545110I0J35814D01*
G01X5395055Y-1465110D01*
G03X5380485Y-1436277I-35814J0D01*
G02X5415544Y-1429837I61256J-234830D01*
G02X5450156Y-1436038I-26555J-247922D01*
G03X5435675Y-1464805I21333J-28767D01*
G01X5435675Y-1544805D01*
G03X5471489Y-1580619I35814J0D01*
G01X5561489Y-1580619D01*
G03X5597303Y-1544805I0J35814D01*
G01X5597303Y-1464805D01*
G03X5582733Y-1435972I-35814J0D01*
G02X5636016Y-1428245I61256J-234830D01*
G01X5638846Y-1428990D01*
G01X5641265Y-1430065D01*
G01X5644491Y-1432047D01*
G01X5648624Y-1435190D01*
G01X5653599Y-1439512D01*
G01X5665283Y-1450399D01*
G03X5860414Y-1366868I79320J84387D01*
G03X5666540Y-1280462I-115811J856D01*
G01X5655610Y-1290209D01*
G01X5650463Y-1294579D01*
G01X5646326Y-1297678D01*
G01X5643168Y-1299594D01*
G01X5640828Y-1300619D01*
G01X5638780Y-1301149D01*
G01X5636207Y-1301362D01*
G02X5572098Y-1290594I7782J242563D01*
G03X5561489Y-1288986I-10609J-34207D01*
G01X5471489Y-1288986D01*
G03X5460633Y-1290671I0J-35814D01*
G02X5415190Y-1300334I-71644J225240D01*
G02X5369850Y-1290899I26551J241231D01*
G03X5359241Y-1289291I-10609J-34207D01*
G01X5269241Y-1289291D01*
G03X5259427Y-1290662I0J-35814D01*
G02X5186741Y-1300816I-72686J255088D01*
G01X4893033Y-1300816D01*
G01X4889016Y-1300478D01*
G01X4886973Y-1299944D01*
G01X4884595Y-1298895D01*
G01X4881403Y-1296946D01*
G01X4877269Y-1293824D01*
G01X4872207Y-1289476D01*
G01X4860907Y-1279172D01*
G03X4702998Y-1279630I-78709J-84957D01*
G01X4691392Y-1290398D01*
G01X4686399Y-1294725D01*
G01X4682266Y-1297863D01*
G01X4679047Y-1299839D01*
G01X4676636Y-1300909D01*
G01X4673826Y-1301649D01*
G01X4673471Y-1301695D01*
G01X4671388Y-1301784D01*
G01X4623300Y-1301784D01*
G02X4551409Y-1290891I0J242688D01*
G03X4540800Y-1289284I-10609J-34207D01*
G01X4450800Y-1289284D01*
G03X4440191Y-1290891I0J-35814D01*
G02X4400550Y-1299631I-71891J231795D01*
G02X4360909Y-1290891I32250J240535D01*
G03X4350300Y-1289284I-10609J-34207D01*
G01X4260300Y-1289284D01*
G03X4249691Y-1290891I0J-35814D01*
G02X4177800Y-1301784I-71891J231795D01*
G01X4146702Y-1301784D01*
G03X4101933Y-1320328I0J-63314D01*
G01X4050514Y-1371747D01*
G01X4050514Y-1005796D01*
G03X4014700Y-969982I-35814J0D01*
G01X3884700Y-969982D01*
G03X3848886Y-1005796I0J-35814D01*
G01X3848886Y-1087877D01*
G01X3574762Y-813752D01*
G01X3848886Y-539628D01*
G01X3848886Y-645204D01*
G03X3884700Y-681018I35814J0D01*
G01X4014700Y-681018D01*
G03X4050514Y-645204I0J35814D01*
G01X4050514Y-95206D01*
G03X4014700Y-59392I-35814J0D01*
G01X3884700Y-59392D01*
G03X3848886Y-95206I0J-35814D01*
G01X3848886Y-397544D01*
G02X3839330Y-411966I-40314J16336D01*
G01X3511318Y-739978D01*
G01X3400024Y-739978D01*
G01X3400024Y-723007D01*
G03X3397172Y-709003I-35814J0D01*
G03X3400024Y-694999I-32962J14004D01*
G01X3400024Y-678028D01*
G01X3444332Y-678028D01*
G03X3559230Y-650222I50378J43124D01*
G03X3630603Y-571866I6216J66022D01*
G03X3535530Y-525018I-65157J-12334D01*
G01X3531828Y-526824D01*
G01X3529538Y-527755D01*
G01X3528946Y-527921D01*
G01X3528286Y-527990D01*
G01X3329610Y-527990D01*
G03X3325216Y-528189I0J-48514D01*
G01X3244210Y-528189D01*
G03X3208396Y-564003I0J-35814D01*
G01X3208396Y-589004D01*
G03X3211247Y-603009I35814J0D01*
G03X3208396Y-617013I32962J-14004D01*
G01X3208396Y-633091D01*
G01X3199011Y-633091D01*
G03X3133940Y-627830I-36671J-48514D01*
G03X3101597Y-684538I28400J-53775D01*
G03X3065983Y-686446I-14697J-59011D01*
G03X3037563Y-707994I20917J-57104D01*
G03X3040004Y-694999I-33373J12995D01*
G01X3040004Y-669997D01*
G03X3037158Y-656006I-35814J0D01*
G03X3040004Y-642014I-32968J13992D01*
G01X3040004Y-617013D01*
G03X3037153Y-603009I-35814J0D01*
G03X3040004Y-589004I-32962J14004D01*
G01X3040004Y-564003D01*
G03X3004190Y-528189I-35814J0D01*
G01X2961284Y-528189D01*
G03X2956890Y-527990I-4394J-48315D01*
G01X2932816Y-527990D01*
G01X2440640Y-35814D01*
G01X6329400Y-35814D01*
G02X6593586Y-300000I0J-264186D01*
G01X6593586Y-1732000D01*
G02X6329400Y-1996186I-264186J0D01*
G01X300000Y-1996186D01*
G02X35814Y-1732000I0J264186D01*
G01X35814Y-1200897D01*
G03X126197Y-1264912I90383J31799D01*
G01X186197Y-1264912D01*
G03X186197Y-1073285I0J95814D01*
G01X126197Y-1073285D01*
G03X35814Y-1137300I0J-95814D01*
G01X35814Y-335900D01*
G03X126197Y-399915I90383J31799D01*
G01X186197Y-399915D01*
G03X186197Y-208288I0J95814D01*
G01X126197Y-208288D01*
G37*
%LPC*%
G36*
G01X523514Y-1666787D02*
G01X523514Y-1586140D01*
G03X487700Y-1550326I-35814J0D01*
G01X401300Y-1550326D01*
G03X365486Y-1586140I0J-35814D01*
G01X365486Y-1666787D01*
G03X393766Y-1701800I35814J0D01*
G03X365486Y-1736813I7534J-35013D01*
G01X365486Y-1817460D01*
G03X401300Y-1853274I35814J0D01*
G01X487700Y-1853274D01*
G03X522448Y-1826136I0J35814D01*
G02X525800Y-1825650I3353J-11325D01*
G01X575488Y-1825650D01*
G02X578555Y-1826056I0J-11811D01*
G03X613588Y-1854431I35033J7438D01*
G01X693598Y-1854431D01*
G03X729412Y-1818617I0J35814D01*
G01X729412Y-1738607D01*
G03X693598Y-1702793I-35814J0D01*
G01X613588Y-1702793D01*
G03X579394Y-1727958I0J-35814D01*
G02X575488Y-1728622I-3906J11146D01*
G01X525800Y-1728622D01*
G02X522448Y-1728137I0J11811D01*
G03X495234Y-1701800I-34747J-8676D01*
G03X523514Y-1666787I-7534J35013D01*
G37*
G36*
G01X926274Y-1549586D02*
G01X775590Y-1549586D01*
G02X698965Y-1543258I0J467107D01*
G03X693090Y-1542773I-5875J-35329D01*
G01X613080Y-1542773D01*
G03X577266Y-1578587I0J-35814D01*
G01X577266Y-1658597D01*
G03X613080Y-1694411I35814J0D01*
G01X693090Y-1694411D01*
G03X708156Y-1691088I0J35814D01*
G02X775590Y-1676214I67434J-145425D01*
G01X952500Y-1676214D01*
G03X997270Y-1657670I0J63314D01*
G01X1141770Y-1513169D01*
G03X1160315Y-1468399I-44770J44770D01*
G01X1160502Y-1468190D01*
G03X1192319Y-1432599I-3997J35590D01*
G01X1192319Y-1428336D01*
G02X1239005Y-1409514I46686J-48489D01*
G01X1278076Y-1409514D01*
G03X1179673Y-1520698I13611J-111184D01*
G01X1179673Y-1668297D01*
G03X1403701Y-1668297I112014J0D01*
G01X1403701Y-1520698D01*
G03X1305297Y-1409514I-112014J0D01*
G01X1370774Y-1409514D01*
G01X1542730Y-1581470D01*
G03X1587500Y-1600014I44770J44770D01*
G01X1728058Y-1600014D01*
G01X1739486Y-1600423D01*
G01X1749105Y-1601315D01*
G01X1751985Y-1601664D01*
G03X1831614Y-1536700I13315J64964D01*
G03X1751985Y-1471736I-66314J0D01*
G01X1749105Y-1472085D01*
G01X1739486Y-1472977D01*
G01X1728058Y-1473386D01*
G01X1613726Y-1473386D01*
G01X1441770Y-1301430D01*
G03X1397000Y-1282886I-44770J-44770D01*
G01X1239005Y-1282886D01*
G02X1192319Y-1264064I0J67311D01*
G01X1192319Y-1259801D01*
G03X1156505Y-1223987I-35814J0D01*
G01X1037496Y-1223987D01*
G03X1001682Y-1259801I0J-35814D01*
G01X1001682Y-1432599D01*
G03X1015219Y-1460642I35814J0D01*
G01X926274Y-1549586D01*
G37*
G36*
G01X1692488Y-1834502D02*
G03X1460861Y-1834502I-115814J0D01*
G03X1692488Y-1834502I115814J0D01*
G37*
G36*
G01X4782198Y-1229957D02*
G03X4840618Y-1014143I0J115814D01*
G03X4873499Y-842891I-58420J100000D01*
G03X4699390Y-833176I-91301J-71252D01*
G01X4697696Y-834931D01*
G01X4697318Y-835351D01*
G03X4695040Y-837878I84880J-78793D01*
G01X4693767Y-839291D01*
G03X4691742Y-841748I26603J-23978D01*
G01X4690478Y-843431D01*
G03X4688782Y-845686I91720J-70713D01*
G01X4685369Y-850227D01*
G01X4683969Y-852228D01*
G01X4675351Y-865486D01*
G01X4672080Y-865629D01*
G01X4566439Y-865629D01*
G01X4480814Y-780005D01*
G01X4480814Y-711200D01*
G03X4466605Y-676895I-48514J0D01*
G01X4371752Y-582042D01*
G01X4371429Y-579252D01*
G03X4258409Y-537309I-66129J-4948D01*
G03X4300352Y-650329I46891J-46891D01*
G01X4303142Y-650652D01*
G01X4383786Y-731295D01*
G01X4383786Y-800100D01*
G03X4397995Y-834405I48514J0D01*
G01X4512039Y-948448D01*
G03X4546343Y-962657I34305J34305D01*
G01X4672080Y-962657D01*
G01X4675351Y-962801D01*
G01X4683969Y-976059D01*
G01X4685369Y-978060D01*
G01X4688782Y-982601D01*
G03X4690478Y-984856I93415J68457D01*
G01X4691742Y-986538D01*
G03X4693767Y-988996I28628J21520D01*
G01X4695040Y-990409D01*
G03X4697318Y-992936I87157J76266D01*
G01X4697696Y-993356D01*
G01X4699390Y-995110D01*
G03X4723778Y-1014143I82808J80967D01*
G03X4782198Y-1229957I58420J-100000D01*
G37*
G36*
G01X4782198Y-779945D02*
G03X4782198Y-548317I0J115814D01*
G03X4782198Y-779945I0J-115814D01*
G37*
G36*
G01X4948403Y-491157D02*
G01X5096002Y-491157D01*
G03X5096002Y-267129I0J112014D01*
G01X4948403Y-267129D01*
G03X4948403Y-491157I0J-112014D01*
G37*
G36*
G01X4948403Y-1761157D02*
G01X5096002Y-1761157D01*
G03X5096002Y-1537129I0J112014D01*
G01X4948403Y-1537129D01*
G03X4948403Y-1761157I0J-112014D01*
G37*
G36*
G01X5744604Y-1231814D02*
G03X5803024Y-1016000I0J115814D01*
G03X5744604Y-800186I-58420J100000D01*
G03X5686184Y-1016000I0J-115814D01*
G03X5744604Y-1231814I58420J-100000D01*
G37*
G36*
G01X5744604Y-781827D02*
G03X5744604Y-550200I0J115814D01*
G03X5744604Y-781827I0J-115814D01*
G37*
G36*
G01X6015596Y-559817D02*
G03X6015596Y-158190I0J200814D01*
G03X6015596Y-559817I0J-200814D01*
G37*
G36*
G01X6015596Y-1873810D02*
G03X6015596Y-1472183I0J200814D01*
G03X6015596Y-1873810I0J-200814D01*
G37*
%LPD*%
G36*
G01X2078914Y-320316D02*
G01X2079057Y-317045D01*
G01X2092316Y-308426D01*
G01X2094317Y-307026D01*
G01X2098857Y-303613D01*
G03X2101112Y-301918I-68457J93415D01*
G01X2102795Y-300653D01*
G03X2105252Y-298629I-21520J28628D01*
G01X2106665Y-297355D01*
G03X2109192Y-295077I-76266J87157D01*
G01X2109612Y-294699D01*
G01X2111367Y-293006D01*
G03X2133077Y-156623I-80967J82808D01*
G03X2008792Y-96418I-102677J-53575D01*
G01X2013995Y-91214D01*
G01X2358822Y-91214D01*
G01X2535940Y-268332D01*
G03X2453386Y-376403I29460J-108071D01*
G01X2453386Y-524002D01*
G03X2677414Y-524002I112014J0D01*
G01X2677414Y-409806D01*
G01X2848376Y-580768D01*
G01X2848376Y-581025D01*
G01X2710586Y-581000D01*
G03X2676282Y-595209I0J-48514D01*
G01X2608805Y-662686D01*
G01X2278453Y-662686D01*
G01X2278453Y-596900D01*
G03X2264244Y-562595I-48514J0D01*
G01X2246284Y-544635D01*
G03X2211979Y-530425I-34305J-34305D01*
G01X2102895Y-530425D01*
G01X2078914Y-506444D01*
G01X2078914Y-320316D01*
G37*
%LPC*%
G36*
G01X2164598Y-210198D02*
G03X2396226Y-210198I115814J0D01*
G03X2164598Y-210198I-115814J0D01*
G37*
%LPD*%
G36*
G01X2770778Y-784022D02*
G01X2796844Y-784022D01*
G03X2797921Y-800600I60656J-4386D01*
G03X2771389Y-847363I34179J-50300D01*
G03X2792311Y-896891I60711J-3537D01*
G01X2776273Y-912930D01*
G02X2761851Y-922486I-30758J30758D01*
G01X2747802Y-922486D01*
G03X2717800Y-938743I0J-35814D01*
G03X2687798Y-922486I-30002J-19557D01*
G01X2632313Y-922486D01*
G01X2770778Y-784022D01*
G37*
G36*
G01X2884190Y-995811D02*
G01X3004190Y-995811D01*
G03X3040004Y-959997I0J35814D01*
G01X3040004Y-934996D01*
G03X3037158Y-921004I-35814J0D01*
G03X3040004Y-907012I-32968J13992D01*
G01X3040004Y-882011D01*
G03X3037153Y-868007I-35814J0D01*
G03X3040004Y-854003I-32962J14004D01*
G01X3040004Y-829001D01*
G03X3037153Y-814997I-35814J0D01*
G03X3040004Y-800993I-32962J14004D01*
G01X3040004Y-782268D01*
G03X3124365Y-791453I46896J38718D01*
G01X3208396Y-791453D01*
G01X3208396Y-800993D01*
G03X3211247Y-814997I35814J0D01*
G03X3208396Y-829001I32962J-14004D01*
G01X3208396Y-854003D01*
G03X3211247Y-868007I35814J0D01*
G03X3208396Y-882011I32962J-14004D01*
G01X3208396Y-907012D01*
G03X3211242Y-921004I35814J0D01*
G03X3208396Y-934996I32968J-13992D01*
G01X3208396Y-949573D01*
G02X3195411Y-965080I-94086J65594D01*
G01X3148135Y-1012356D01*
G03X3133925Y-1046661I34305J-34305D01*
G01X3133925Y-1159998D01*
G02X3133390Y-1163515I-11811J0D01*
G03X3106886Y-1198098I9311J-34583D01*
G01X3106886Y-1278098D01*
G03X3123143Y-1308100I35814J0D01*
G03X3106886Y-1338102I19557J-30002D01*
G01X3106886Y-1417147D01*
G01X3092770Y-1403030D01*
G03X3048000Y-1384486I-44770J-44770D01*
G01X2992789Y-1384486D01*
G02X2863603Y-1346598I0J239186D01*
G01X2863603Y-1130800D01*
G01X2863603Y-1130800D01*
G01X2863616Y-1048311D01*
G01X2863616Y-1048311D01*
G01X2863616Y-989312D01*
G03X2884190Y-995811I20574J29315D01*
G37*
G36*
G01X3306280Y-996010D02*
G01X3329610Y-996010D01*
G03X3334004Y-995811I0J48514D01*
G01X3364210Y-995811D01*
G03X3393186Y-981045I0J35814D01*
G01X3393186Y-1159998D01*
G01X3392921Y-1162484D01*
G03X3360886Y-1198098I3779J-35614D01*
G01X3360886Y-1278098D01*
G03X3377143Y-1308100I35814J0D01*
G03X3360886Y-1338102I19557J-30002D01*
G01X3360886Y-1418102D01*
G03X3396700Y-1453916I35814J0D01*
G01X3486700Y-1453916D01*
G03X3522514Y-1418102I0J35814D01*
G01X3522514Y-1338102D01*
G03X3506257Y-1308100I-35814J0D01*
G03X3522514Y-1278098I-19557J30002D01*
G01X3522514Y-1198098D01*
G03X3490479Y-1162484I-35814J0D01*
G01X3490214Y-1159998D01*
G01X3490214Y-939800D01*
G03X3476005Y-905495I-48514J0D01*
G01X3460525Y-890016D01*
G01X3513807Y-890016D01*
G01X3839330Y-1215539D01*
G02X3848886Y-1229961I-30758J-30758D01*
G01X3848886Y-1555794D01*
G03X3854979Y-1575777I35814J0D01*
G01X3265516Y-1575777D01*
G01X3143656Y-1453916D01*
G01X3232700Y-1453916D01*
G03X3268514Y-1418102I0J35814D01*
G01X3268514Y-1338102D01*
G03X3252257Y-1308100I-35814J0D01*
G03X3268514Y-1278098I-19557J30002D01*
G01X3268514Y-1198098D01*
G03X3232700Y-1162284I-35814J0D01*
G01X3231177Y-1162284D01*
G01X3230953Y-1159998D01*
G01X3230953Y-1066756D01*
G01X3292342Y-1005367D01*
G02X3306280Y-996010I30758J-30758D01*
G37*
G54D10*
G01X126197Y-208288D02*
G03X37894Y-266916I0J-95814D01*
G02X300000Y-35814I262106J-33084D01*
G01X1932177Y-35814D01*
G01X1870428Y-97563D01*
G01X1868078Y-99722D01*
G01X1853379Y-96586D01*
G03X1850271Y-96065I-7473J-35026D01*
G01X1849510Y-95971D01*
G03X1839450Y-94738I-19110J-114226D01*
G03X1836286Y-94524I-4000J-35590D01*
G01X1835908Y-94515D01*
G03X1830289Y-94384I-5507J-115683D01*
G01X1828055Y-94408D01*
G03X1751122Y-294624I2345J-115790D01*
G03X1930377Y-268577I79239J84520D01*
G03X1949433Y-293006I100023J58380D01*
G01X1951188Y-294699D01*
G01X1951607Y-295077D01*
G03X1954134Y-297355I78793J84880D01*
G01X1955547Y-298629D01*
G03X1958005Y-300653I23978J26603D01*
G01X1959687Y-301918D01*
G03X1961943Y-303613I70713J91720D01*
G01X1966483Y-307026D01*
G01X1968484Y-308426D01*
G01X1981742Y-317045D01*
G01X1981886Y-320316D01*
G01X1981886Y-526539D01*
G03X1996095Y-560844I48514J0D01*
G01X2048495Y-613244D01*
G03X2082800Y-627453I34305J34305D01*
G01X2181425Y-627453D01*
G01X2181425Y-693239D01*
G03X2186986Y-715792I48514J0D01*
G01X847014Y-715792D01*
G02X833214Y-691606I14294J24186D01*
G01X833214Y-686619D01*
G03X819795Y-654224I-45814J0D01*
G01X799795Y-634224D01*
G03X774151Y-621305I-32395J-32395D01*
G01X785438Y-610019D01*
G02X802665Y-604898I17226J-26418D01*
G01X841287Y-604898D01*
G03X876300Y-576618I0J35814D01*
G03X911313Y-604898I35013J7534D01*
G01X991960Y-604898D01*
G03X1027774Y-569084I0J35814D01*
G01X1027774Y-495114D01*
G01X1059759Y-495114D01*
G01X1071187Y-495523D01*
G01X1080805Y-496415D01*
G01X1083685Y-496764D01*
G03X1163315Y-431800I13315J64964D01*
G03X1083685Y-366836I-66314J0D01*
G01X1080805Y-367185D01*
G01X1071187Y-368077D01*
G01X1059759Y-368486D01*
G01X991426Y-368486D01*
G01X967705Y-344765D01*
G02X972053Y-330641I101575J-23535D01*
G02X1003300Y-325202I57147J-235863D01*
G02X1049291Y-334709I-25900J-241302D01*
G03X1059900Y-336316I10609J34207D01*
G01X1149900Y-336316D01*
G03X1160509Y-334709I0J35814D01*
G02X1195010Y-326714I71891J-231795D01*
G03X1183386Y-376403I100390J-49689D01*
G01X1183386Y-524002D01*
G03X1407414Y-524002I112014J0D01*
G01X1407414Y-376403D01*
G03X1394303Y-323816I-112014J0D01*
G01X1473888Y-323816D01*
G01X1524824Y-324445D01*
G01X1575738Y-325917D01*
G03X1669438Y-136121I4675J115719D01*
G03X1465772Y-193761I-89025J-74077D01*
G01X1462546Y-195024D01*
G01X1457850Y-196144D01*
G01X1451837Y-196903D01*
G01X1444395Y-197188D01*
G01X1363908Y-197188D01*
G03X1344650Y-194188I-19258J-60314D01*
G01X1246150Y-194188D01*
G03X1227076Y-197130I0J-63314D01*
G02X1171144Y-189330I5324J242629D01*
G03X1185714Y-160498I-21244J28833D01*
G01X1185714Y-80498D01*
G03X1149900Y-44684I-35814J0D01*
G01X1059900Y-44684D01*
G03X1024086Y-80498I0J-35814D01*
G01X1024086Y-160498D01*
G03X1038656Y-189330I35814J0D01*
G02X1003300Y-195802I-61256J234830D01*
G02X967944Y-189330I25900J241302D01*
G03X982514Y-160498I-21244J28833D01*
G01X982514Y-80498D01*
G03X946700Y-44684I-35814J0D01*
G01X856700Y-44684D01*
G03X820886Y-80498I0J-35814D01*
G01X820886Y-160498D01*
G03X837143Y-190500I35814J0D01*
G03X820886Y-220502I19557J-30002D01*
G01X820886Y-300502D01*
G03X825360Y-317836I35814J0D01*
G02X838386Y-368300I-91240J-50464D01*
G03X856930Y-413070I63314J0D01*
G01X894776Y-450916D01*
G03X876300Y-475150I16536J-31768D01*
G03X841287Y-446870I-35013J-7534D01*
G01X760640Y-446870D01*
G03X724826Y-482684I0J-35814D01*
G01X724826Y-521307D01*
G02X720684Y-536929I-31538J0D01*
G01X720204Y-535358D01*
G03X722017Y-524109I-34002J11249D01*
G01X722017Y-469108D01*
G03X719763Y-456603I-35814J0D01*
G03X722017Y-444099I-33560J12504D01*
G01X722017Y-389098D01*
G03X696549Y-354811I-35814J0D01*
G03X621212Y-213288I-75338J50709D01*
G01X531212Y-213288D01*
G03X490545Y-385301I0J-90814D01*
G03X457991Y-472753I33648J-62311D01*
G03X540389Y-516550I66202J25141D01*
G01X540389Y-524109D01*
G03X542201Y-535358I35814J0D01*
G03X540389Y-546607I34002J-11249D01*
G01X540389Y-576607D01*
G03X541815Y-586613I35814J0D01*
G03X540389Y-596619I34388J-10006D01*
G01X540389Y-626619D01*
G03X541811Y-636613I35814J0D01*
G03X540389Y-646607I34391J-9994D01*
G01X540389Y-676692D01*
G03X530342Y-684402I24257J-42014D01*
G01X513998Y-700745D01*
G03X499789Y-735050I34305J-34305D01*
G01X499789Y-788163D01*
G03X513998Y-822467I48514J0D01*
G01X530342Y-838811D01*
G03X540389Y-846521I34305J34305D01*
G01X540389Y-876606D01*
G03X541815Y-886612I35814J0D01*
G03X540389Y-896619I34388J-10006D01*
G01X540389Y-926619D01*
G03X542201Y-937868I35814J0D01*
G03X540389Y-949117I34002J-11249D01*
G01X540389Y-956676D01*
G03X457995Y-1000459I-16196J-68938D01*
G03X490520Y-1087911I66197J-25154D01*
G03X531212Y-1259912I40692J-81187D01*
G01X621212Y-1259912D01*
G03X696549Y-1118389I0J90814D01*
G03X722017Y-1084102I-10347J34287D01*
G01X722017Y-1052856D01*
G01X729709Y-1060548D01*
G01X729709Y-1137200D01*
G03X731316Y-1147809I35814J0D01*
G02X740796Y-1193553I-231793J-71891D01*
G02X720815Y-1237075I-92787J16252D01*
G03X712681Y-1259801I27680J-22726D01*
G01X712681Y-1432599D01*
G03X748495Y-1468413I35814J0D01*
G01X867504Y-1468413D01*
G03X903318Y-1432599I0J35814D01*
G01X903318Y-1259801D01*
G03X892666Y-1234315I-35814J0D01*
G02X870339Y-1192742I56292J57015D01*
G02X876695Y-1158444I241184J-26958D01*
G03X905528Y-1173014I28833J21244D01*
G01X985528Y-1173014D01*
G03X1021342Y-1137200I0J35814D01*
G01X1021342Y-1047200D01*
G03X985528Y-1011386I-35814J0D01*
G01X905528Y-1011386D01*
G03X875525Y-1027643I0J-35814D01*
G03X859906Y-1014401I-30002J-19557D01*
G03X850293Y-1002053I-54383J-32422D01*
G01X803170Y-954931D01*
G01X1076368Y-954931D01*
G01X1189777Y-1076428D01*
G02X1194726Y-1095530I-34392J-19102D01*
G01X1194726Y-1135400D01*
G03X1230540Y-1171214I35814J0D01*
G01X1311187Y-1171214D01*
G03X1346200Y-1142934I0J35814D01*
G03X1381213Y-1171214I35013J7534D01*
G01X1461860Y-1171214D01*
G03X1497674Y-1135400I0J35814D01*
G01X1497674Y-1049000D01*
G03X1461860Y-1013186I-35814J0D01*
G01X1381213Y-1013186D01*
G03X1346200Y-1041466I0J-35814D01*
G03X1311187Y-1013186I-35013J-7534D01*
G01X1273972Y-1013186D01*
G02X1258627Y-1007993I0J25268D01*
G01X1144208Y-885414D01*
G01X2399899Y-885414D01*
G03X2426691Y-908300I51201J32814D01*
G01X1992382Y-1342609D01*
G03X1978172Y-1376914I34305J-34305D01*
G01X1978172Y-1505820D01*
G03X1876971Y-1557152I-35072J-56280D01*
G01X1876648Y-1559942D01*
G01X1792382Y-1644209D01*
G03X1778173Y-1678513I34305J-34305D01*
G01X1778173Y-1724384D01*
G01X1778029Y-1727655D01*
G01X1764771Y-1736274D01*
G01X1762770Y-1737674D01*
G01X1758229Y-1741087D01*
G03X1755974Y-1742782I68457J-93415D01*
G01X1754292Y-1744047D01*
G03X1751834Y-1746071I21520J-28628D01*
G01X1750421Y-1747345D01*
G03X1747894Y-1749623I76266J-87157D01*
G01X1747475Y-1750001D01*
G01X1745720Y-1751694D01*
G03X1755434Y-1925804I80967J-82808D01*
G03X1926687Y-1892922I71252J91301D01*
G03X2097939Y-1925804I100000J58420D01*
G03X2107653Y-1751694I-71252J91301D01*
G01X2105898Y-1750001D01*
G01X2105479Y-1749623D01*
G03X2102952Y-1747345I-78793J-84880D01*
G01X2101539Y-1746071D01*
G03X2099081Y-1744047I-23978J-26603D01*
G01X2097399Y-1742782D01*
G03X2095144Y-1741087I-70713J-91720D01*
G01X2090603Y-1737674D01*
G01X2088602Y-1736274D01*
G01X2075344Y-1727655D01*
G01X2075200Y-1724384D01*
G01X2075200Y-1397009D01*
G01X2416878Y-1055331D01*
G03X2489850Y-1079301I53358J39377D01*
G03X2536509Y-1018291I-19614J63347D01*
G01X2571984Y-982816D01*
G01X2571984Y-1048300D01*
G03X2607798Y-1084114I35814J0D01*
G01X2687798Y-1084114D01*
G03X2717800Y-1067857I0J35814D01*
G01X2718007Y-1068171D01*
G02X2736975Y-1130800I-93909J-62629D01*
G01X2736975Y-1561600D01*
G02X2726014Y-1633417I-240756J0D01*
G03X2724384Y-1644100I34184J-10683D01*
G01X2724384Y-1734100D01*
G03X2726014Y-1744783I35814J0D01*
G02X2732653Y-1771188I-229795J-71817D01*
G01X2605965Y-1771188D01*
G03X2673701Y-1668297I-44279J102891D01*
G01X2673701Y-1520698D01*
G03X2449673Y-1520698I-112014J0D01*
G01X2449673Y-1668297D01*
G03X2517408Y-1771188I112014J0D01*
G01X2387508Y-1771188D01*
G01X2383491Y-1770851D01*
G01X2381449Y-1770317D01*
G01X2379070Y-1769267D01*
G01X2375879Y-1767318D01*
G01X2371744Y-1764196D01*
G01X2366683Y-1759849D01*
G01X2355382Y-1749545D01*
G03X2160859Y-1834502I-78709J-84957D01*
G03X2355382Y-1919460I115814J0D01*
G01X2366683Y-1909156D01*
G01X2371744Y-1904808D01*
G01X2375879Y-1901687D01*
G01X2379070Y-1899737D01*
G01X2381449Y-1898688D01*
G01X2383491Y-1898154D01*
G01X2387508Y-1897816D01*
G01X2709396Y-1897816D01*
G02X2724494Y-1943428I-69722J-48384D01*
G03X2760289Y-1978072I35795J1170D01*
G01X2840289Y-1978072D01*
G03X2870291Y-1961815I0J35814D01*
G03X2900294Y-1978072I30002J19557D01*
G01X2980294Y-1978072D01*
G03X3016108Y-1942258I0J35814D01*
G01X3016108Y-1852258D01*
G03X2980294Y-1816444I-35814J0D01*
G01X2900294Y-1816444D01*
G03X2871461Y-1831014I0J-35814D01*
G02X2864731Y-1793132I234830J61256D01*
G02X2871389Y-1755370I243520J-23468D01*
G03X2900202Y-1769914I28813J21270D01*
G01X2980202Y-1769914D01*
G03X3016016Y-1734100I0J35814D01*
G01X3016016Y-1644100D01*
G03X2980202Y-1608286I-35814J0D01*
G01X2900202Y-1608286D01*
G03X2871389Y-1622830I0J-35814D01*
G02X2863603Y-1561600I236862J61230D01*
G01X2863603Y-1549002D01*
G02X2992789Y-1511114I129186J-201298D01*
G01X3021774Y-1511114D01*
G01X3194521Y-1683861D01*
G03X3239291Y-1702405I44770J44770D01*
G01X4050509Y-1702405D01*
G03X4095279Y-1683861I0J63314D01*
G01X4134170Y-1644970D01*
G03X4152714Y-1600200I-44770J44770D01*
G01X4152714Y-1448626D01*
G01X4172928Y-1428412D01*
G01X4177800Y-1428412D01*
G02X4239056Y-1436270I0J-242688D01*
G03X4224486Y-1465102I21244J-28833D01*
G01X4224486Y-1545102D01*
G03X4260300Y-1580916I35814J0D01*
G01X4350300Y-1580916D01*
G03X4386114Y-1545102I0J35814D01*
G01X4386114Y-1465102D01*
G03X4371544Y-1436270I-35814J0D01*
G02X4400550Y-1430564I61256J-234830D01*
G02X4429556Y-1436270I-32250J-240535D01*
G03X4414986Y-1465102I21244J-28833D01*
G01X4414986Y-1545102D01*
G03X4450800Y-1580916I35814J0D01*
G01X4540800Y-1580916D01*
G03X4576614Y-1545102I0J35814D01*
G01X4576614Y-1465102D01*
G03X4562044Y-1436270I-35814J0D01*
G02X4623300Y-1428412I61256J-234830D01*
G01X4672105Y-1428412D01*
G01X4676172Y-1428749D01*
G01X4678219Y-1429280D01*
G01X4680567Y-1430310D01*
G01X4683731Y-1432232D01*
G01X4687868Y-1435336D01*
G01X4692998Y-1439702D01*
G01X4704001Y-1449559D01*
G03X4860907Y-1449087I78197J85429D01*
G01X4872207Y-1438783D01*
G01X4877269Y-1434436D01*
G01X4881403Y-1431314D01*
G01X4884595Y-1429365D01*
G01X4886973Y-1428315D01*
G01X4889016Y-1427781D01*
G01X4893033Y-1427444D01*
G01X5186741Y-1427444D01*
G02X5248267Y-1436080I0J-223469D01*
G03X5233427Y-1465110I20974J-29030D01*
G01X5233427Y-1545110D01*
G03X5269241Y-1580924I35814J0D01*
G01X5359241Y-1580924D01*
G03X5395055Y-1545110I0J35814D01*
G01X5395055Y-1465110D01*
G03X5380485Y-1436277I-35814J0D01*
G02X5415544Y-1429837I61256J-234830D01*
G02X5450156Y-1436038I-26555J-247922D01*
G03X5435675Y-1464805I21333J-28767D01*
G01X5435675Y-1544805D01*
G03X5471489Y-1580619I35814J0D01*
G01X5561489Y-1580619D01*
G03X5597303Y-1544805I0J35814D01*
G01X5597303Y-1464805D01*
G03X5582733Y-1435972I-35814J0D01*
G02X5636016Y-1428245I61256J-234830D01*
G01X5638846Y-1428990D01*
G01X5641265Y-1430065D01*
G01X5644491Y-1432047D01*
G01X5648624Y-1435190D01*
G01X5653599Y-1439512D01*
G01X5665283Y-1450399D01*
G03X5860414Y-1366868I79320J84387D01*
G03X5666540Y-1280462I-115811J856D01*
G01X5655610Y-1290209D01*
G01X5650463Y-1294579D01*
G01X5646326Y-1297678D01*
G01X5643168Y-1299594D01*
G01X5640828Y-1300619D01*
G01X5638780Y-1301149D01*
G01X5636207Y-1301362D01*
G02X5572098Y-1290594I7782J242563D01*
G03X5561489Y-1288986I-10609J-34207D01*
G01X5471489Y-1288986D01*
G03X5460633Y-1290671I0J-35814D01*
G02X5415190Y-1300334I-71644J225240D01*
G02X5369850Y-1290899I26551J241231D01*
G03X5359241Y-1289291I-10609J-34207D01*
G01X5269241Y-1289291D01*
G03X5259427Y-1290662I0J-35814D01*
G02X5186741Y-1300816I-72686J255088D01*
G01X4893033Y-1300816D01*
G01X4889016Y-1300478D01*
G01X4886973Y-1299944D01*
G01X4884595Y-1298895D01*
G01X4881403Y-1296946D01*
G01X4877269Y-1293824D01*
G01X4872207Y-1289476D01*
G01X4860907Y-1279172D01*
G03X4702998Y-1279630I-78709J-84957D01*
G01X4691392Y-1290398D01*
G01X4686399Y-1294725D01*
G01X4682266Y-1297863D01*
G01X4679047Y-1299839D01*
G01X4676636Y-1300909D01*
G01X4673826Y-1301649D01*
G01X4673471Y-1301695D01*
G01X4671388Y-1301784D01*
G01X4623300Y-1301784D01*
G02X4551409Y-1290891I0J242688D01*
G03X4540800Y-1289284I-10609J-34207D01*
G01X4450800Y-1289284D01*
G03X4440191Y-1290891I0J-35814D01*
G02X4400550Y-1299631I-71891J231795D01*
G02X4360909Y-1290891I32250J240535D01*
G03X4350300Y-1289284I-10609J-34207D01*
G01X4260300Y-1289284D01*
G03X4249691Y-1290891I0J-35814D01*
G02X4177800Y-1301784I-71891J231795D01*
G01X4146702Y-1301784D01*
G03X4101933Y-1320328I0J-63314D01*
G01X4050514Y-1371747D01*
G01X4050514Y-1005796D01*
G03X4014700Y-969982I-35814J0D01*
G01X3884700Y-969982D01*
G03X3848886Y-1005796I0J-35814D01*
G01X3848886Y-1087877D01*
G01X3574762Y-813752D01*
G01X3848886Y-539628D01*
G01X3848886Y-645204D01*
G03X3884700Y-681018I35814J0D01*
G01X4014700Y-681018D01*
G03X4050514Y-645204I0J35814D01*
G01X4050514Y-95206D01*
G03X4014700Y-59392I-35814J0D01*
G01X3884700Y-59392D01*
G03X3848886Y-95206I0J-35814D01*
G01X3848886Y-397544D01*
G02X3839330Y-411966I-40314J16336D01*
G01X3511318Y-739978D01*
G01X3400024Y-739978D01*
G01X3400024Y-723007D01*
G03X3397172Y-709003I-35814J0D01*
G03X3400024Y-694999I-32962J14004D01*
G01X3400024Y-678028D01*
G01X3444332Y-678028D01*
G03X3559230Y-650222I50378J43124D01*
G03X3630603Y-571866I6216J66022D01*
G03X3535530Y-525018I-65157J-12334D01*
G01X3531828Y-526824D01*
G01X3529538Y-527755D01*
G01X3528946Y-527921D01*
G01X3528286Y-527990D01*
G01X3329610Y-527990D01*
G03X3325216Y-528189I0J-48514D01*
G01X3244210Y-528189D01*
G03X3208396Y-564003I0J-35814D01*
G01X3208396Y-589004D01*
G03X3211247Y-603009I35814J0D01*
G03X3208396Y-617013I32962J-14004D01*
G01X3208396Y-633091D01*
G01X3199011Y-633091D01*
G03X3133940Y-627830I-36671J-48514D01*
G03X3101597Y-684538I28400J-53775D01*
G03X3065983Y-686446I-14697J-59011D01*
G03X3037563Y-707994I20917J-57104D01*
G03X3040004Y-694999I-33373J12995D01*
G01X3040004Y-669997D01*
G03X3037158Y-656006I-35814J0D01*
G03X3040004Y-642014I-32968J13992D01*
G01X3040004Y-617013D01*
G03X3037153Y-603009I-35814J0D01*
G03X3040004Y-589004I-32962J14004D01*
G01X3040004Y-564003D01*
G03X3004190Y-528189I-35814J0D01*
G01X2961284Y-528189D01*
G03X2956890Y-527990I-4394J-48315D01*
G01X2932816Y-527990D01*
G01X2440640Y-35814D01*
G01X6329400Y-35814D01*
G02X6593586Y-300000I0J-264186D01*
G01X6593586Y-1732000D01*
G02X6329400Y-1996186I-264186J0D01*
G01X300000Y-1996186D01*
G02X35814Y-1732000I0J264186D01*
G01X35814Y-1200897D01*
G03X126197Y-1264912I90383J31799D01*
G01X186197Y-1264912D01*
G03X186197Y-1073285I0J95814D01*
G01X126197Y-1073285D01*
G03X35814Y-1137300I0J-95814D01*
G01X35814Y-335900D01*
G03X126197Y-399915I90383J31799D01*
G01X186197Y-399915D01*
G03X186197Y-208288I0J95814D01*
G01X126197Y-208288D01*
G01X523514Y-1666787D02*
G01X523514Y-1586140D01*
G03X487700Y-1550326I-35814J0D01*
G01X401300Y-1550326D01*
G03X365486Y-1586140I0J-35814D01*
G01X365486Y-1666787D01*
G03X393766Y-1701800I35814J0D01*
G03X365486Y-1736813I7534J-35013D01*
G01X365486Y-1817460D01*
G03X401300Y-1853274I35814J0D01*
G01X487700Y-1853274D01*
G03X522448Y-1826136I0J35814D01*
G02X525800Y-1825650I3353J-11325D01*
G01X575488Y-1825650D01*
G02X578555Y-1826056I0J-11811D01*
G03X613588Y-1854431I35033J7438D01*
G01X693598Y-1854431D01*
G03X729412Y-1818617I0J35814D01*
G01X729412Y-1738607D01*
G03X693598Y-1702793I-35814J0D01*
G01X613588Y-1702793D01*
G03X579394Y-1727958I0J-35814D01*
G02X575488Y-1728622I-3906J11146D01*
G01X525800Y-1728622D01*
G02X522448Y-1728137I0J11811D01*
G03X495234Y-1701800I-34747J-8676D01*
G03X523514Y-1666787I-7534J35013D01*
G01X926274Y-1549586D02*
G01X775590Y-1549586D01*
G02X698965Y-1543258I0J467107D01*
G03X693090Y-1542773I-5875J-35329D01*
G01X613080Y-1542773D01*
G03X577266Y-1578587I0J-35814D01*
G01X577266Y-1658597D01*
G03X613080Y-1694411I35814J0D01*
G01X693090Y-1694411D01*
G03X708156Y-1691088I0J35814D01*
G02X775590Y-1676214I67434J-145425D01*
G01X952500Y-1676214D01*
G03X997270Y-1657670I0J63314D01*
G01X1141770Y-1513169D01*
G03X1160315Y-1468399I-44770J44770D01*
G01X1160502Y-1468190D01*
G03X1192319Y-1432599I-3997J35590D01*
G01X1192319Y-1428336D01*
G02X1239005Y-1409514I46686J-48489D01*
G01X1278076Y-1409514D01*
G03X1179673Y-1520698I13611J-111184D01*
G01X1179673Y-1668297D01*
G03X1403701Y-1668297I112014J0D01*
G01X1403701Y-1520698D01*
G03X1305297Y-1409514I-112014J0D01*
G01X1370774Y-1409514D01*
G01X1542730Y-1581470D01*
G03X1587500Y-1600014I44770J44770D01*
G01X1728058Y-1600014D01*
G01X1739486Y-1600423D01*
G01X1749105Y-1601315D01*
G01X1751985Y-1601664D01*
G03X1831614Y-1536700I13315J64964D01*
G03X1751985Y-1471736I-66314J0D01*
G01X1749105Y-1472085D01*
G01X1739486Y-1472977D01*
G01X1728058Y-1473386D01*
G01X1613726Y-1473386D01*
G01X1441770Y-1301430D01*
G03X1397000Y-1282886I-44770J-44770D01*
G01X1239005Y-1282886D01*
G02X1192319Y-1264064I0J67311D01*
G01X1192319Y-1259801D01*
G03X1156505Y-1223987I-35814J0D01*
G01X1037496Y-1223987D01*
G03X1001682Y-1259801I0J-35814D01*
G01X1001682Y-1432599D01*
G03X1015219Y-1460642I35814J0D01*
G01X926274Y-1549586D01*
G01X1692488Y-1834502D02*
G03X1460861Y-1834502I-115814J0D01*
G03X1692488Y-1834502I115814J0D01*
G01X4782198Y-1229957D02*
G03X4840618Y-1014143I0J115814D01*
G03X4873499Y-842891I-58420J100000D01*
G03X4699390Y-833176I-91301J-71252D01*
G01X4697696Y-834931D01*
G01X4697318Y-835351D01*
G03X4695040Y-837878I84880J-78793D01*
G01X4693767Y-839291D01*
G03X4691742Y-841748I26603J-23978D01*
G01X4690478Y-843431D01*
G03X4688782Y-845686I91720J-70713D01*
G01X4685369Y-850227D01*
G01X4683969Y-852228D01*
G01X4675351Y-865486D01*
G01X4672080Y-865629D01*
G01X4566439Y-865629D01*
G01X4480814Y-780005D01*
G01X4480814Y-711200D01*
G03X4466605Y-676895I-48514J0D01*
G01X4371752Y-582042D01*
G01X4371429Y-579252D01*
G03X4258409Y-537309I-66129J-4948D01*
G03X4300352Y-650329I46891J-46891D01*
G01X4303142Y-650652D01*
G01X4383786Y-731295D01*
G01X4383786Y-800100D01*
G03X4397995Y-834405I48514J0D01*
G01X4512039Y-948448D01*
G03X4546343Y-962657I34305J34305D01*
G01X4672080Y-962657D01*
G01X4675351Y-962801D01*
G01X4683969Y-976059D01*
G01X4685369Y-978060D01*
G01X4688782Y-982601D01*
G03X4690478Y-984856I93415J68457D01*
G01X4691742Y-986538D01*
G03X4693767Y-988996I28628J21520D01*
G01X4695040Y-990409D01*
G03X4697318Y-992936I87157J76266D01*
G01X4697696Y-993356D01*
G01X4699390Y-995110D01*
G03X4723778Y-1014143I82808J80967D01*
G03X4782198Y-1229957I58420J-100000D01*
G01X4782198Y-779945D02*
G03X4782198Y-548317I0J115814D01*
G03X4782198Y-779945I0J-115814D01*
G01X4948403Y-491157D02*
G01X5096002Y-491157D01*
G03X5096002Y-267129I0J112014D01*
G01X4948403Y-267129D01*
G03X4948403Y-491157I0J-112014D01*
G01X4948403Y-1761157D02*
G01X5096002Y-1761157D01*
G03X5096002Y-1537129I0J112014D01*
G01X4948403Y-1537129D01*
G03X4948403Y-1761157I0J-112014D01*
G01X5744604Y-1231814D02*
G03X5803024Y-1016000I0J115814D01*
G03X5744604Y-800186I-58420J100000D01*
G03X5686184Y-1016000I0J-115814D01*
G03X5744604Y-1231814I58420J-100000D01*
G01X5744604Y-781827D02*
G03X5744604Y-550200I0J115814D01*
G03X5744604Y-781827I0J-115814D01*
G01X6015596Y-559817D02*
G03X6015596Y-158190I0J200814D01*
G03X6015596Y-559817I0J-200814D01*
G01X6015596Y-1873810D02*
G03X6015596Y-1472183I0J200814D01*
G03X6015596Y-1873810I0J-200814D01*
G01X2078914Y-320316D02*
G01X2079057Y-317045D01*
G01X2092316Y-308426D01*
G01X2094317Y-307026D01*
G01X2098857Y-303613D01*
G03X2101112Y-301918I-68457J93415D01*
G01X2102795Y-300653D01*
G03X2105252Y-298629I-21520J28628D01*
G01X2106665Y-297355D01*
G03X2109192Y-295077I-76266J87157D01*
G01X2109612Y-294699D01*
G01X2111367Y-293006D01*
G03X2133077Y-156623I-80967J82808D01*
G03X2008792Y-96418I-102677J-53575D01*
G01X2013995Y-91214D01*
G01X2358822Y-91214D01*
G01X2535940Y-268332D01*
G03X2453386Y-376403I29460J-108071D01*
G01X2453386Y-524002D01*
G03X2677414Y-524002I112014J0D01*
G01X2677414Y-409806D01*
G01X2848376Y-580768D01*
G01X2848376Y-581025D01*
G01X2710586Y-581000D01*
G03X2676282Y-595209I0J-48514D01*
G01X2608805Y-662686D01*
G01X2278453Y-662686D01*
G01X2278453Y-596900D01*
G03X2264244Y-562595I-48514J0D01*
G01X2246284Y-544635D01*
G03X2211979Y-530425I-34305J-34305D01*
G01X2102895Y-530425D01*
G01X2078914Y-506444D01*
G01X2078914Y-320316D01*
G01X2164598Y-210198D02*
G03X2396226Y-210198I115814J0D01*
G03X2164598Y-210198I-115814J0D01*
G01X2770778Y-784022D02*
G01X2796844Y-784022D01*
G03X2797921Y-800600I60656J-4386D01*
G03X2771389Y-847363I34179J-50300D01*
G03X2792311Y-896891I60711J-3537D01*
G01X2776273Y-912930D01*
G02X2761851Y-922486I-30758J30758D01*
G01X2747802Y-922486D01*
G03X2717800Y-938743I0J-35814D01*
G03X2687798Y-922486I-30002J-19557D01*
G01X2632313Y-922486D01*
G01X2770778Y-784022D01*
G01X2884190Y-995811D02*
G01X3004190Y-995811D01*
G03X3040004Y-959997I0J35814D01*
G01X3040004Y-934996D01*
G03X3037158Y-921004I-35814J0D01*
G03X3040004Y-907012I-32968J13992D01*
G01X3040004Y-882011D01*
G03X3037153Y-868007I-35814J0D01*
G03X3040004Y-854003I-32962J14004D01*
G01X3040004Y-829001D01*
G03X3037153Y-814997I-35814J0D01*
G03X3040004Y-800993I-32962J14004D01*
G01X3040004Y-782268D01*
G03X3124365Y-791453I46896J38718D01*
G01X3208396Y-791453D01*
G01X3208396Y-800993D01*
G03X3211247Y-814997I35814J0D01*
G03X3208396Y-829001I32962J-14004D01*
G01X3208396Y-854003D01*
G03X3211247Y-868007I35814J0D01*
G03X3208396Y-882011I32962J-14004D01*
G01X3208396Y-907012D01*
G03X3211242Y-921004I35814J0D01*
G03X3208396Y-934996I32968J-13992D01*
G01X3208396Y-949573D01*
G02X3195411Y-965080I-94086J65594D01*
G01X3148135Y-1012356D01*
G03X3133925Y-1046661I34305J-34305D01*
G01X3133925Y-1159998D01*
G02X3133390Y-1163515I-11811J0D01*
G03X3106886Y-1198098I9311J-34583D01*
G01X3106886Y-1278098D01*
G03X3123143Y-1308100I35814J0D01*
G03X3106886Y-1338102I19557J-30002D01*
G01X3106886Y-1417147D01*
G01X3092770Y-1403030D01*
G03X3048000Y-1384486I-44770J-44770D01*
G01X2992789Y-1384486D01*
G02X2863603Y-1346598I0J239186D01*
G01X2863603Y-1130800D01*
G01X2863603Y-1130800D01*
G01X2863616Y-1048311D01*
G01X2863616Y-1048311D01*
G01X2863616Y-989312D01*
G03X2884190Y-995811I20574J29315D01*
G01X3306280Y-996010D02*
G01X3329610Y-996010D01*
G03X3334004Y-995811I0J48514D01*
G01X3364210Y-995811D01*
G03X3393186Y-981045I0J35814D01*
G01X3393186Y-1159998D01*
G01X3392921Y-1162484D01*
G03X3360886Y-1198098I3779J-35614D01*
G01X3360886Y-1278098D01*
G03X3377143Y-1308100I35814J0D01*
G03X3360886Y-1338102I19557J-30002D01*
G01X3360886Y-1418102D01*
G03X3396700Y-1453916I35814J0D01*
G01X3486700Y-1453916D01*
G03X3522514Y-1418102I0J35814D01*
G01X3522514Y-1338102D01*
G03X3506257Y-1308100I-35814J0D01*
G03X3522514Y-1278098I-19557J30002D01*
G01X3522514Y-1198098D01*
G03X3490479Y-1162484I-35814J0D01*
G01X3490214Y-1159998D01*
G01X3490214Y-939800D01*
G03X3476005Y-905495I-48514J0D01*
G01X3460525Y-890016D01*
G01X3513807Y-890016D01*
G01X3839330Y-1215539D01*
G02X3848886Y-1229961I-30758J-30758D01*
G01X3848886Y-1555794D01*
G03X3854979Y-1575777I35814J0D01*
G01X3265516Y-1575777D01*
G01X3143656Y-1453916D01*
G01X3232700Y-1453916D01*
G03X3268514Y-1418102I0J35814D01*
G01X3268514Y-1338102D01*
G03X3252257Y-1308100I-35814J0D01*
G03X3268514Y-1278098I-19557J30002D01*
G01X3268514Y-1198098D01*
G03X3232700Y-1162284I-35814J0D01*
G01X3231177Y-1162284D01*
G01X3230953Y-1159998D01*
G01X3230953Y-1066756D01*
G01X3292342Y-1005367D01*
G02X3306280Y-996010I30758J-30758D01*
G54D11*
G01X444500Y-1586394D02*
G01X444500Y-1560486D01*
G01X487446Y-1626464D02*
G01X513354Y-1626464D01*
G01X401554Y-1626464D02*
G01X375646Y-1626464D01*
G01X991706Y-525884D02*
G01X1017614Y-525884D01*
G01X951636Y-568830D02*
G01X951636Y-594738D01*
G01X685949Y-416598D02*
G01X711857Y-416598D01*
G01X685949Y-1056602D02*
G01X711857Y-1056602D01*
G01X985274Y-1092200D02*
G01X1011182Y-1092200D01*
G01X945528Y-1136946D02*
G01X945528Y-1162854D01*
G01X945528Y-1047454D02*
G01X945528Y-1021546D01*
G01X1104900Y-80752D02*
G01X1104900Y-54844D01*
G01X1149646Y-120498D02*
G01X1175554Y-120498D01*
G01X1060154Y-120498D02*
G01X1034246Y-120498D01*
G01X901700Y-80752D02*
G01X901700Y-54844D01*
G01X946446Y-120498D02*
G01X972354Y-120498D01*
G01X856954Y-120498D02*
G01X831046Y-120498D01*
G01X2608052Y-1003300D02*
G01X2582144Y-1003300D01*
G01X2647798Y-958554D02*
G01X2647798Y-932646D01*
G01X2647798Y-1048046D02*
G01X2647798Y-1073954D01*
G01X3003936Y-947496D02*
G01X3029844Y-947496D01*
G01X2944190Y-959743D02*
G01X2944190Y-985651D01*
G01X2979948Y-1689100D02*
G01X3005856Y-1689100D01*
G01X2940202Y-1733846D02*
G01X2940202Y-1759754D01*
G01X2940202Y-1644354D02*
G01X2940202Y-1618446D01*
G01X3187700Y-1417848D02*
G01X3187700Y-1443756D01*
G01X3142954Y-1378102D02*
G01X3117046Y-1378102D01*
G01X3232446Y-1378102D02*
G01X3258354Y-1378102D01*
G01X1461606Y-1092200D02*
G01X1487514Y-1092200D01*
G01X1421536Y-1135146D02*
G01X1421536Y-1161054D01*
G01X1421536Y-1049254D02*
G01X1421536Y-1023346D01*
G01X2980040Y-1897258D02*
G01X3005948Y-1897258D01*
G01X2940294Y-1942004D02*
G01X2940294Y-1967912D01*
G01X2940294Y-1852512D02*
G01X2940294Y-1826604D01*
G01X3441700Y-1417848D02*
G01X3441700Y-1443756D01*
G01X3396954Y-1378102D02*
G01X3371046Y-1378102D01*
G01X3486446Y-1378102D02*
G01X3512354Y-1378102D01*
G01X4305300Y-1544848D02*
G01X4305300Y-1570756D01*
G01X4260554Y-1505102D02*
G01X4234646Y-1505102D01*
G01X4350046Y-1505102D02*
G01X4375954Y-1505102D01*
G01X4495800Y-1544848D02*
G01X4495800Y-1570756D01*
G01X4451054Y-1505102D02*
G01X4425146Y-1505102D01*
G01X4540546Y-1505102D02*
G01X4566454Y-1505102D01*
G01X5314241Y-1544856D02*
G01X5314241Y-1570764D01*
G01X5269495Y-1505110D02*
G01X5243587Y-1505110D01*
G01X5358987Y-1505110D02*
G01X5384895Y-1505110D01*
G01X5516489Y-1544551D02*
G01X5516489Y-1570459D01*
G01X5471743Y-1504805D02*
G01X5445835Y-1504805D01*
G01X5561235Y-1504805D02*
G01X5587143Y-1504805D01*
G01X1656420Y-1834502D02*
G01X1682328Y-1834502D01*
G01X1496929Y-1834502D02*
G01X1471021Y-1834502D01*
G01X1576675Y-1914248D02*
G01X1576675Y-1940156D01*
G01X1576675Y-1754756D02*
G01X1576675Y-1728848D01*
G01X1367633Y-1594498D02*
G01X1393541Y-1594498D01*
G01X1215741Y-1594498D02*
G01X1189833Y-1594498D01*
G01X1291687Y-1744243D02*
G01X1291687Y-1770151D01*
G01X2637633Y-1594498D02*
G01X2663541Y-1594498D01*
G01X2485741Y-1594498D02*
G01X2459833Y-1594498D01*
G01X2561687Y-1444752D02*
G01X2561687Y-1418844D01*
G01X2200666Y-210198D02*
G01X2174758Y-210198D01*
G01X2360158Y-210198D02*
G01X2386066Y-210198D01*
G01X2280412Y-130452D02*
G01X2280412Y-104544D01*
G01X2280412Y-289944D02*
G01X2280412Y-315852D01*
G01X1219454Y-450202D02*
G01X1193546Y-450202D01*
G01X1371346Y-450202D02*
G01X1397254Y-450202D01*
G01X1295400Y-599948D02*
G01X1295400Y-625856D01*
G01X2489454Y-450202D02*
G01X2463546Y-450202D01*
G01X2641346Y-450202D02*
G01X2667254Y-450202D01*
G01X2565400Y-599948D02*
G01X2565400Y-625856D01*
G01X4782198Y-743877D02*
G01X4782198Y-769785D01*
G01X4782198Y-584385D02*
G01X4782198Y-558477D01*
G01X4702452Y-664131D02*
G01X4676544Y-664131D01*
G01X4861944Y-664131D02*
G01X4887852Y-664131D01*
G01X5022202Y-1725089D02*
G01X5022202Y-1750997D01*
G01X5022202Y-1573197D02*
G01X5022202Y-1547289D01*
G01X4872457Y-1649143D02*
G01X4846549Y-1649143D01*
G01X5171948Y-1649143D02*
G01X5197856Y-1649143D01*
G01X5022202Y-455089D02*
G01X5022202Y-480997D01*
G01X5022202Y-303197D02*
G01X5022202Y-277289D01*
G01X4872457Y-379143D02*
G01X4846549Y-379143D01*
G01X5171948Y-379143D02*
G01X5197856Y-379143D01*
G01X5744604Y-745759D02*
G01X5744604Y-771667D01*
G01X5744604Y-586268D02*
G01X5744604Y-560360D01*
G01X5664858Y-666013D02*
G01X5638950Y-666013D01*
G01X5824350Y-666013D02*
G01X5850258Y-666013D01*
G01X6015596Y-523749D02*
G01X6015596Y-549657D01*
G01X6015596Y-194258D02*
G01X6015596Y-168350D01*
G01X5850851Y-359004D02*
G01X5824943Y-359004D01*
G01X6180342Y-359004D02*
G01X6206250Y-359004D01*
G01X6015596Y-1837742D02*
G01X6015596Y-1863650D01*
G01X6015596Y-1508251D02*
G01X6015596Y-1482343D01*
G01X5850851Y-1672996D02*
G01X5824943Y-1672996D01*
G01X6180342Y-1672996D02*
G01X6206250Y-1672996D01*
G04 Copper End*

G04 TearDrop Start*
G36*
G01X2043100Y-319531D02*
G01X2017700Y-319531D01*
G01X2017431Y-313390D01*
G01X2016646Y-308095D01*
G01X2015380Y-303541D01*
G01X2013667Y-299621D01*
G01X2011542Y-296231D01*
G01X2009038Y-293262D01*
G01X2006191Y-290611D01*
G01X2003035Y-288170D01*
G01X1988003Y-278399D01*
G01X1979525Y-272026D01*
G01X1975165Y-268096D01*
G01X1970772Y-263531D01*
G01X2090028Y-263531D01*
G01X2085634Y-268096D01*
G01X2081275Y-272026D01*
G01X2072797Y-278399D01*
G01X2057765Y-288170D01*
G01X2054609Y-290611D01*
G01X2051761Y-293262D01*
G01X2049258Y-296231D01*
G01X2047133Y-299621D01*
G01X2045420Y-303541D01*
G01X2044154Y-308095D01*
G01X2043369Y-313390D01*
G01X2043100Y-319531D01*
G37*
G36*
G01X2013986Y-1725169D02*
G01X2039386Y-1725169D01*
G01X2039656Y-1731310D01*
G01X2040440Y-1736605D01*
G01X2041706Y-1741159D01*
G01X2043419Y-1745079D01*
G01X2045545Y-1748469D01*
G01X2048048Y-1751438D01*
G01X2050895Y-1754089D01*
G01X2054052Y-1756530D01*
G01X2069083Y-1766301D01*
G01X2077562Y-1772674D01*
G01X2081921Y-1776604D01*
G01X2086315Y-1781169D01*
G01X1967058Y-1781169D01*
G01X1971452Y-1776604D01*
G01X1975811Y-1772674D01*
G01X1984289Y-1766301D01*
G01X1999321Y-1756530D01*
G01X2002478Y-1754089D01*
G01X2005325Y-1751438D01*
G01X2007828Y-1748469D01*
G01X2009953Y-1745079D01*
G01X2011666Y-1741159D01*
G01X2012932Y-1736605D01*
G01X2013717Y-1731310D01*
G01X2013986Y-1725169D01*
G37*
G36*
G01X1813987Y-1725169D02*
G01X1839387Y-1725169D01*
G01X1839656Y-1731310D01*
G01X1840441Y-1736605D01*
G01X1841707Y-1741159D01*
G01X1843420Y-1745079D01*
G01X1845545Y-1748469D01*
G01X1848048Y-1751438D01*
G01X1850895Y-1754089D01*
G01X1854052Y-1756530D01*
G01X1869084Y-1766301D01*
G01X1877562Y-1772674D01*
G01X1881921Y-1776604D01*
G01X1886315Y-1781169D01*
G01X1767058Y-1781169D01*
G01X1771452Y-1776604D01*
G01X1775812Y-1772674D01*
G01X1784290Y-1766301D01*
G01X1799322Y-1756530D01*
G01X1802478Y-1754089D01*
G01X1805325Y-1751438D01*
G01X1807828Y-1748469D01*
G01X1809954Y-1745079D01*
G01X1811667Y-1741159D01*
G01X1812933Y-1736605D01*
G01X1813717Y-1731310D01*
G01X1813987Y-1725169D01*
G37*
G36*
G01X1922606Y-1600555D02*
G01X1904645Y-1582594D01*
G01X1906500Y-1580421D01*
G01X1908081Y-1577939D01*
G01X1910485Y-1572321D01*
G01X1911968Y-1566292D01*
G01X1912647Y-1560403D01*
G01X1944797Y-1592553D01*
G01X1938908Y-1593232D01*
G01X1932879Y-1594715D01*
G01X1927261Y-1597119D01*
G01X1924779Y-1598700D01*
G01X1922606Y-1600555D01*
G37*
G36*
G01X3850865Y-487001D02*
G01X3864654Y-437290D01*
G03X3884700Y-403455I-56082J56082D01*
G01X3884700Y-466955D01*
G03X3850865Y-487001I22246J-76128D01*
G37*
G36*
G01X3864654Y-1190215D02*
G01X3850865Y-1140504D01*
G03X3884700Y-1160550I56082J56082D01*
G01X3884700Y-1224050D01*
G03X3864654Y-1190215I-76128J-22246D01*
G37*
G36*
G01X3169739Y-1159998D02*
G01X3195139Y-1159998D01*
G03X3214189Y-1198098I47625J0D01*
G01X3150689Y-1198098D01*
G03X3169739Y-1159998I-28575J38100D01*
G37*
G36*
G01X3429000Y-1159998D02*
G01X3454400Y-1159998D01*
G03X3473450Y-1198098I47625J0D01*
G01X3409950Y-1198098D01*
G03X3429000Y-1159998I-28575J38100D01*
G37*
G36*
G01X3518684Y-589204D02*
G01X3530157Y-563804D01*
G01X3535679Y-563225D01*
G01X3541137Y-561700D01*
G01X3546443Y-559543D01*
G01X3551507Y-557072D01*
G01X3540034Y-601067D01*
G01X3538279Y-598854D01*
G01X3536039Y-596711D01*
G01X3530553Y-592911D01*
G01X3524470Y-590223D01*
G01X3521484Y-589470D01*
G01X3518684Y-589204D01*
G37*
G36*
G01X4343755Y-604694D02*
G01X4325794Y-622655D01*
G01X4323621Y-620800D01*
G01X4321139Y-619219D01*
G01X4315521Y-616815D01*
G01X4309492Y-615332D01*
G01X4303603Y-614653D01*
G01X4335753Y-582503D01*
G01X4336432Y-588392D01*
G01X4337915Y-594421D01*
G01X4340319Y-600039D01*
G01X4341900Y-602521D01*
G01X4343755Y-604694D01*
G37*
G36*
G01X4672865Y-926843D02*
G01X4672865Y-901443D01*
G01X4679005Y-901174D01*
G01X4684300Y-900389D01*
G01X4688854Y-899123D01*
G01X4692774Y-897410D01*
G01X4696165Y-895285D01*
G01X4699133Y-892782D01*
G01X4701785Y-889935D01*
G01X4704226Y-886778D01*
G01X4713997Y-871747D01*
G01X4720370Y-863268D01*
G01X4724299Y-858909D01*
G01X4728865Y-854515D01*
G01X4728865Y-973772D01*
G01X4724299Y-969378D01*
G01X4720370Y-965019D01*
G01X4713997Y-956540D01*
G01X4704226Y-941509D01*
G01X4701785Y-938352D01*
G01X4699133Y-935505D01*
G01X4696165Y-933002D01*
G01X4692774Y-930876D01*
G01X4688854Y-929163D01*
G01X4684300Y-927898D01*
G01X4679005Y-927113D01*
G01X4672865Y-926843D01*
G37*
G36*
G01X1895218Y-123422D02*
G01X1916158Y-138402D01*
G01X1912077Y-142872D01*
G01X1908928Y-147152D01*
G01X1906618Y-151287D01*
G01X1905053Y-155321D01*
G01X1904140Y-159297D01*
G01X1903785Y-163261D01*
G01X1903896Y-167254D01*
G01X1904377Y-171323D01*
G01X1906081Y-179859D01*
G01X1908148Y-189220D01*
G01X1909832Y-199758D01*
G01X1910296Y-205578D01*
G01X1910384Y-211824D01*
G01X1823129Y-130529D01*
G01X1829552Y-130190D01*
G01X1835451Y-130328D01*
G01X1845907Y-131612D01*
G01X1863061Y-135272D01*
G01X1866902Y-135801D01*
G01X1870679Y-135966D01*
G01X1874450Y-135662D01*
G01X1878272Y-134784D01*
G01X1882202Y-133225D01*
G01X1886298Y-130882D01*
G01X1890617Y-127649D01*
G01X1895218Y-123422D01*
G37*
G36*
G01X762253Y-582555D02*
G01X747169Y-561718D01*
G03X760640Y-521307I-53882J40411D01*
G01X802665Y-569084D01*
G03X762253Y-582555I0J-67352D01*
G37*
G36*
G01X833023Y-1219700D02*
G01X778023Y-1219700D01*
G03X765523Y-1137200I-278499J-0D01*
G01X845523Y-1137200D01*
G03X833023Y-1219700I265999J-82499D01*
G37*
G36*
G01X778023Y-1177301D02*
G01X833023Y-1177301D01*
G03X867504Y-1259801I115935J-0D01*
G01X748495Y-1259801D01*
G03X778023Y-1177301I-100486J82500D01*
G37*
G36*
G01X2409073Y-849600D02*
G01X2419600Y-827600D01*
G01X2433773Y-828062D01*
G01X2441402Y-828177D01*
G01X2447900Y-827806D01*
G01X2426574Y-857442D01*
G01X2425705Y-854858D01*
G01X2424309Y-852915D01*
G01X2422460Y-851522D01*
G01X2420235Y-850587D01*
G01X2414956Y-849725D01*
G01X2409073Y-849600D01*
G37*
G36*
G01X715228Y-598919D02*
G01X715228Y-624319D01*
G03X686203Y-626619I0J-184304D01*
G01X686203Y-596619D01*
G03X715228Y-598919I29026J182004D01*
G37*
G36*
G01X735317Y-949117D02*
G01X735317Y-1004117D01*
G01X686203Y-1004118D01*
G01X686203Y-949117D01*
G01X735317Y-949117D01*
G37*
G36*
G01X564646Y-731406D02*
G01X564646Y-706006D01*
G03X576203Y-696594I0J11801D01*
G01X576203Y-726594D01*
G03X564646Y-731406I0J-16282D01*
G37*
G36*
G01X564646Y-817206D02*
G01X564646Y-791806D01*
G03X576203Y-796594I11557J11556D01*
G01X576203Y-826593D01*
G03X564646Y-817206I-11557J-2420D01*
G37*
G36*
G01X777400Y-691606D02*
G02X717400Y-751606I-60000J0D01*
G01X787400Y-761606D01*
G01X839303Y-751606D01*
G02X797400Y-691606I22006J60000D01*
G01X777400Y-691606D01*
G37*
G36*
G01X3196507Y-668905D02*
G01X3196507Y-694305D01*
G01X3192050Y-694723D01*
G01X3187238Y-695914D01*
G01X3182686Y-697784D01*
G01X3179007Y-700239D01*
G01X3179007Y-662971D01*
G01X3182686Y-665426D01*
G01X3187238Y-667296D01*
G01X3192050Y-668487D01*
G01X3196507Y-668905D01*
G37*
G36*
G01X1218468Y-1054680D02*
G01X1234048Y-1034147D01*
G03X1273972Y-1049000I39924J46229D01*
G01X1230540Y-1095530D01*
G03X1218468Y-1054680I-75155J0D01*
G37*
G36*
G01X3206110Y-694305D02*
G01X3206110Y-668905D01*
G03X3244210Y-669997I38100J663818D01*
G01X3244210Y-694999D01*
G03X3206110Y-694305I-38099J-1045923D01*
G37*
G36*
G01X3267018Y-980043D02*
G01X3220735Y-990404D01*
G03X3244210Y-959997I-106426J106426D01*
G01X3300853Y-959997D01*
G03X3267018Y-980043I22246J-76128D01*
G37*
G36*
G01X3120606Y-730239D02*
G01X3121517Y-755639D01*
G01X3117030Y-756069D01*
G01X3112209Y-757296D01*
G01X3107667Y-759228D01*
G01X3104017Y-761771D01*
G01X3103107Y-724514D01*
G01X3106814Y-726882D01*
G01X3111375Y-728686D01*
G01X3116176Y-729835D01*
G01X3120606Y-730239D01*
G37*
G36*
G01X2801597Y-938254D02*
G01X2849578Y-926194D01*
G03X2827802Y-958300I72844J-72845D01*
G01X2767762Y-958300D01*
G03X2801597Y-938254I-22246J76128D01*
G37*
G36*
G01X525800Y-1764436D02*
G01X525800Y-1789836D01*
G03X487700Y-1808886I0J-47625D01*
G01X487700Y-1745386D01*
G03X525800Y-1764436I38100J28575D01*
G37*
G36*
G01X575488Y-1789836D02*
G01X575488Y-1764436D01*
G03X613588Y-1745386I0J47625D01*
G01X613588Y-1808886D01*
G03X575488Y-1789836I-38100J-28575D01*
G37*
G36*
G01X1124501Y-1468399D02*
G01X1069501Y-1468399D01*
G03X1037496Y-1432599I-36025J0D01*
G01X1156505Y-1432599D01*
G03X1124501Y-1468399I4021J-35800D01*
G37*
G36*
G01X775590Y-1585400D02*
G01X775590Y-1640400D01*
G03X693090Y-1658597I-0J-196113D01*
G01X693090Y-1578587D01*
G03X775590Y-1585400I82499J496106D01*
G37*
G36*
G01X1239005Y-1318700D02*
G01X1239005Y-1373700D01*
G03X1156505Y-1414950I-0J-103125D01*
G01X1156505Y-1277450D01*
G03X1239005Y-1318700I82500J61875D01*
G37*
G36*
G01X1728700Y-1564200D02*
G01X1728700Y-1509200D01*
G01X1741782Y-1508731D01*
G01X1752910Y-1507700D01*
G01X1765300Y-1506200D01*
G01X1765300Y-1567200D01*
G01X1752910Y-1565700D01*
G01X1741782Y-1564669D01*
G01X1728700Y-1564200D01*
G37*
G36*
G01X2386006Y-1807002D02*
G01X2386006Y-1862002D01*
G01X2377418Y-1862724D01*
G01X2369616Y-1864763D01*
G01X2362434Y-1867932D01*
G01X2355705Y-1872042D01*
G01X2349264Y-1876906D01*
G01X2342945Y-1882334D01*
G01X2330006Y-1894131D01*
G01X2330006Y-1774874D01*
G01X2342945Y-1786671D01*
G01X2349264Y-1792099D01*
G01X2355705Y-1796962D01*
G01X2362434Y-1801072D01*
G01X2369616Y-1804241D01*
G01X2377418Y-1806281D01*
G01X2386006Y-1807002D01*
G37*
G36*
G01X2725007Y-1860867D02*
G01X2758898Y-1816976D01*
G03X2840289Y-1852258I85333J85333D01*
G01X2760289Y-1942258D01*
G03X2725007Y-1860867I-120615J-3943D01*
G37*
G36*
G01X2827789Y-1816600D02*
G01X2772789Y-1816600D01*
G03X2760198Y-1734100I-276571J0D01*
G01X2840198Y-1734100D01*
G03X2827789Y-1816600I268054J-82500D01*
G37*
G36*
G01X2772789Y-1769758D02*
G01X2827789Y-1769758D01*
G03X2840289Y-1852258I278501J-0D01*
G01X2760289Y-1852258D01*
G03X2772789Y-1769758I-266001J82500D01*
G37*
G36*
G01X4177800Y-1392598D02*
G01X4177800Y-1337598D01*
G03X4260300Y-1325098I0J278501D01*
G01X4260300Y-1405098D01*
G03X4177800Y-1392598I-82500J-266001D01*
G37*
G36*
G01X2992789Y-1475300D02*
G03X2827789Y-1530300I-0J-275000D01*
G01X2800289Y-1439226D01*
G01X2827789Y-1365300D01*
G03X2992789Y-1420300I165000J220000D01*
G01X2992789Y-1475300D01*
G37*
G36*
G01X2827789Y-1130800D02*
G01X2772789Y-1130800D01*
G03X2747802Y-1048300I-148691J0D01*
G01X2827802Y-1048300D01*
G01X2827802Y-1048300D01*
G01X2827789Y-1130800D01*
G37*
G36*
G01X2772789Y-1561600D02*
G01X2827789Y-1561600D01*
G03X2840198Y-1644100I280462J-0D01*
G01X2760198Y-1644100D01*
G03X2772789Y-1561600I-263979J82500D01*
G37*
G36*
G01X4432800Y-1337598D02*
G01X4432800Y-1392598D01*
G03X4350300Y-1405098I-0J-278501D01*
G01X4350300Y-1325098D01*
G03X4432800Y-1337598I82500J266001D01*
G37*
G36*
G01X4368300Y-1392598D02*
G01X4368300Y-1337598D01*
G03X4450800Y-1325098I0J278501D01*
G01X4450800Y-1405098D01*
G03X4368300Y-1392598I-82500J-266001D01*
G37*
G36*
G01X4623300Y-1337598D02*
G01X4623300Y-1392598D01*
G03X4540800Y-1405098I-0J-278501D01*
G01X4540800Y-1325098D01*
G03X4623300Y-1337598I82500J266001D01*
G37*
G36*
G01X4673590Y-1392598D02*
G01X4672147Y-1337598D01*
G01X4676539Y-1337411D01*
G01X4680721Y-1336869D01*
G01X4688538Y-1334809D01*
G01X4695750Y-1331609D01*
G01X4702513Y-1327458D01*
G01X4708980Y-1322547D01*
G01X4715306Y-1317065D01*
G01X4728147Y-1305151D01*
G01X4729590Y-1424399D01*
G01X4716555Y-1412722D01*
G01X4710241Y-1407349D01*
G01X4703826Y-1402535D01*
G01X4697131Y-1398467D01*
G01X4689979Y-1395330D01*
G01X4682191Y-1393312D01*
G01X4673590Y-1392598D01*
G37*
G36*
G01X4891531Y-1336630D02*
G01X4891531Y-1391630D01*
G01X4882943Y-1392352D01*
G01X4875141Y-1394391D01*
G01X4867959Y-1397560D01*
G01X4861230Y-1401670D01*
G01X4854789Y-1406533D01*
G01X4848469Y-1411961D01*
G01X4835531Y-1423758D01*
G01X4835531Y-1304502D01*
G01X4848469Y-1316299D01*
G01X4854789Y-1321727D01*
G01X4861230Y-1326590D01*
G01X4867959Y-1330700D01*
G01X4875141Y-1333869D01*
G01X4882943Y-1335908D01*
G01X4891531Y-1336630D01*
G37*
G36*
G01X5186741Y-1391630D02*
G01X5186741Y-1336630D01*
G03X5269241Y-1325105I0J301055D01*
G01X5269241Y-1405105D01*
G03X5186741Y-1391630I-82500J-245808D01*
G37*
G36*
G01X5441741Y-1337605D02*
G01X5441741Y-1392605D01*
G03X5359241Y-1405105I-0J-278501D01*
G01X5359241Y-1325105D01*
G03X5441741Y-1337605I82500J266001D01*
G37*
G36*
G01X5388989Y-1392605D02*
G01X5388989Y-1337605D01*
G03X5471489Y-1324800I0J272174D01*
G01X5471489Y-1404800D01*
G03X5388989Y-1392605I-82500J-272959D01*
G37*
G36*
G01X5643989Y-1337300D02*
G01X5643989Y-1392300D01*
G03X5561489Y-1404800I-0J-278501D01*
G01X5561489Y-1324800D01*
G03X5643989Y-1337300I82500J266001D01*
G37*
G36*
G01X5634374Y-1392300D02*
G01X5636180Y-1337300D01*
G01X5644784Y-1336588D01*
G01X5652569Y-1334575D01*
G01X5659714Y-1331446D01*
G01X5666400Y-1327389D01*
G01X5672809Y-1322588D01*
G01X5679121Y-1317229D01*
G01X5692180Y-1305583D01*
G01X5690373Y-1424826D01*
G01X5677557Y-1412883D01*
G01X5671230Y-1407388D01*
G01X5664756Y-1402465D01*
G01X5657985Y-1398304D01*
G01X5650764Y-1395096D01*
G01X5642945Y-1393031D01*
G01X5638762Y-1392487D01*
G01X5634374Y-1392300D01*
G37*
G36*
G01X1124501Y-1382800D02*
G01X1069501Y-1382800D01*
G01X1069032Y-1369718D01*
G01X1068001Y-1358590D01*
G01X1066501Y-1346200D01*
G01X1127501Y-1346200D01*
G01X1126001Y-1358590D01*
G01X1124969Y-1369718D01*
G01X1124501Y-1382800D01*
G37*
G36*
G01X1133601Y-1318700D02*
G01X1133601Y-1373700D01*
G01X1120519Y-1374169D01*
G01X1109391Y-1375200D01*
G01X1097001Y-1376700D01*
G01X1097001Y-1315700D01*
G01X1109391Y-1317200D01*
G01X1120519Y-1318231D01*
G01X1133601Y-1318700D01*
G37*
G36*
G01X1060400Y-459300D02*
G01X1060400Y-404300D01*
G01X1073482Y-403831D01*
G01X1084610Y-402800D01*
G01X1097001Y-401300D01*
G01X1097001Y-462300D01*
G01X1084610Y-460800D01*
G01X1073482Y-459769D01*
G01X1060400Y-459300D01*
G37*
G36*
G01X929200Y-368300D02*
G01X874200Y-368300D01*
G03X856700Y-300502I-140080J0D01*
G01X946700Y-300502D01*
G03X929200Y-368300I122580J-67798D01*
G37*
G36*
G01X1029200Y-233002D02*
G01X1029200Y-288002D01*
G03X946700Y-300502I-0J-278501D01*
G01X946700Y-220502D01*
G03X1029200Y-233002I82500J266001D01*
G37*
G36*
G01X977400Y-288002D02*
G01X977400Y-233002D01*
G03X1059900Y-220502I0J278501D01*
G01X1059900Y-300502D01*
G03X977400Y-288002I-82500J-266001D01*
G37*
G36*
G01X1232400Y-233002D02*
G01X1232400Y-288002D01*
G03X1149900Y-300502I-0J-278501D01*
G01X1149900Y-220502D01*
G03X1232400Y-233002I82500J266001D01*
G37*
G36*
G01X1474109Y-288002D02*
G01X1445081Y-233002D01*
G01X1454772Y-232631D01*
G01X1464267Y-231432D01*
G01X1473280Y-229282D01*
G01X1481524Y-226055D01*
G01X1485269Y-223999D01*
G01X1488713Y-221627D01*
G01X1491823Y-218923D01*
G01X1494560Y-215872D01*
G01X1496891Y-212459D01*
G01X1498778Y-208666D01*
G01X1500187Y-204480D01*
G01X1501081Y-199884D01*
G01X1576997Y-290125D01*
G01X1525562Y-288637D01*
G01X1474109Y-288002D01*
G37*
G04 TearDrop End*

G04 Pad Start*
G54D12*
G01X2787802Y-1003300D03*
G01X2647798Y-1003300D03*
G54D13*
G01X3187700Y-1238098D03*
G01X3187700Y-1378102D03*
G01X3441700Y-1238098D03*
G01X3441700Y-1378102D03*
G54D14*
G01X805523Y-1092200D03*
G01X945528Y-1092200D03*
G54D15*
G01X2944190Y-576504D03*
G01X2944190Y-629514D03*
G01X2944190Y-682498D03*
G01X2944190Y-735508D03*
G01X2944190Y-788492D03*
G01X2944190Y-841502D03*
G01X2944190Y-894512D03*
G01X2944190Y-947496D03*
G01X3304210Y-947496D03*
G01X3304210Y-894512D03*
G01X3304210Y-841502D03*
G01X3304210Y-788492D03*
G01X3304210Y-735508D03*
G01X3304210Y-682498D03*
G01X3304210Y-629514D03*
G01X3304210Y-576504D03*
G54D16*
G01X2276673Y-1834502D03*
G01X2026686Y-1834502D03*
G01X1826687Y-1834502D03*
G01X1576675Y-1834502D03*
G54D17*
G01X2561687Y-1594498D03*
G01X1291687Y-1594498D03*
G54D16*
G01X1580413Y-210198D03*
G01X1830400Y-210198D03*
G01X2030400Y-210198D03*
G01X2280412Y-210198D03*
G54D17*
G01X1295400Y-450202D03*
G01X2565400Y-450202D03*
G54D16*
G01X4782198Y-1364130D03*
G01X4782198Y-1114143D03*
G01X4782198Y-914143D03*
G01X4782198Y-664131D03*
G54D18*
G01X5022202Y-1649143D03*
G01X5022202Y-379143D03*
G54D16*
G01X5744604Y-1366012D03*
G01X5744604Y-1116000D03*
G01X5744604Y-916000D03*
G01X5744604Y-666013D03*
G54D20*
G01X6015596Y-1672996D03*
G01X6015596Y-359004D03*
G54D21*
G01X631203Y-416598D03*
G01X631203Y-496608D03*
G54D22*
G01X631203Y-561607D03*
G01X631203Y-611619D03*
G01X631203Y-661606D03*
G01X631203Y-711594D03*
G01X631203Y-761606D03*
G01X631203Y-811593D03*
G01X631203Y-861606D03*
G01X631203Y-911619D03*
G54D21*
G01X631203Y-976617D03*
G01X631203Y-1056602D03*
G54D23*
G01X576212Y-304101D03*
G01X576212Y-1169098D03*
G54D24*
G01X156197Y-304101D03*
G01X156197Y-1169098D03*
G54D25*
G01X3949700Y-1280795D03*
G01X3949700Y-370205D03*
G54D13*
G01X5314241Y-1365105D03*
G01X5314241Y-1505110D03*
G01X5516489Y-1364800D03*
G01X5516489Y-1504805D03*
G01X4305300Y-1365098D03*
G01X4305300Y-1505102D03*
G01X4495800Y-1365098D03*
G01X4495800Y-1505102D03*
G54D14*
G01X2800198Y-1689100D03*
G01X2940202Y-1689100D03*
G01X2800289Y-1897258D03*
G01X2940294Y-1897258D03*
G54D26*
G01X901700Y-260502D03*
G01X901700Y-120498D03*
G01X1104900Y-260502D03*
G01X1104900Y-120498D03*
G54D27*
G01X653593Y-1778612D03*
G01X653085Y-1618592D03*
G54D28*
G01X1270864Y-1092200D03*
G01X1421536Y-1092200D03*
G01X800964Y-525884D03*
G01X951636Y-525884D03*
G54D29*
G01X444500Y-1777136D03*
G01X444500Y-1626464D03*
G54D30*
G01X807999Y-1346200D03*
G01X1097001Y-1346200D03*
G04 Pad End*

G04 Via Start*
G54D31*
G01X1943100Y-1562100D03*
G01X2470236Y-1015954D03*
G01X4305300Y-584200D03*
G01X3565446Y-584200D03*
G01X3494710Y-634904D03*
G54D32*
G01X2451100Y-787400D03*
G01X2857500Y-788408D03*
G01X2451100Y-852600D03*
G01X2832100Y-850900D03*
G01X3162340Y-681605D03*
G01X3086900Y-743549D03*
G54D31*
G01X1765300Y-1536700D03*
G01X1097001Y-1346200D03*
G01X1097001Y-431800D03*
G01X631203Y-496608D03*
G01X631203Y-976617D03*
G01X482237Y-76200D03*
G01X276533Y-76200D03*
G01X345101Y-76200D03*
G01X413669Y-76200D03*
G01X482237Y-165100D03*
G01X276533Y-165100D03*
G01X345101Y-165100D03*
G01X413669Y-165100D03*
G01X1716449Y-533400D03*
G01X1510746Y-533400D03*
G01X1579314Y-533400D03*
G01X1647882Y-533400D03*
G01X1906949Y-990600D03*
G01X1701246Y-990600D03*
G01X1769814Y-990600D03*
G01X1838382Y-990600D03*
G01X2211749Y-990600D03*
G01X2006046Y-990600D03*
G01X2074614Y-990600D03*
G01X2143182Y-990600D03*
G01X1195749Y-1943100D03*
G01X990046Y-1943100D03*
G01X1058614Y-1943100D03*
G01X1127182Y-1943100D03*
G01X2605449Y-1308100D03*
G01X2399746Y-1308100D03*
G01X2468314Y-1308100D03*
G01X2536882Y-1308100D03*
G01X1894249Y-1333500D03*
G01X1688546Y-1333500D03*
G01X1757114Y-1333500D03*
G01X1825682Y-1333500D03*
G01X3811949Y-177800D03*
G01X3606246Y-177800D03*
G01X3674814Y-177800D03*
G01X3743382Y-177800D03*
G01X4307249Y-177800D03*
G01X4101546Y-177800D03*
G01X4170114Y-177800D03*
G01X4238682Y-177800D03*
G01X4318000Y-277451D03*
G01X4318000Y-483154D03*
G01X4318000Y-414586D03*
G01X4318000Y-346018D03*
G01X3606800Y-277451D03*
G01X3606800Y-483154D03*
G01X3606800Y-414586D03*
G01X3606800Y-346018D03*
G01X4318000Y-734651D03*
G01X4318000Y-940354D03*
G01X4318000Y-871786D03*
G01X4318000Y-803218D03*
G01X4459649Y-1181100D03*
G01X4253946Y-1181100D03*
G01X4322514Y-1181100D03*
G01X4391082Y-1181100D03*
G01X3592151Y-1536700D03*
G01X3797854Y-1536700D03*
G01X3729286Y-1536700D03*
G01X3660718Y-1536700D03*
G01X6364649Y-88900D03*
G01X6158946Y-88900D03*
G01X6227514Y-88900D03*
G01X6296082Y-88900D03*
G01X5983649Y-88900D03*
G01X5777946Y-88900D03*
G01X5846514Y-88900D03*
G01X5915082Y-88900D03*
G01X5589949Y-88900D03*
G01X5384246Y-88900D03*
G01X5452814Y-88900D03*
G01X5521382Y-88900D03*
G01X5321300Y-620351D03*
G01X5321300Y-826054D03*
G01X5321300Y-757486D03*
G01X5321300Y-688918D03*
G01X5499100Y-620351D03*
G01X5499100Y-826054D03*
G01X5499100Y-757486D03*
G01X5499100Y-688918D03*
G01X2971800Y-1090251D03*
G01X2971800Y-1295954D03*
G01X2971800Y-1227386D03*
G01X2971800Y-1158818D03*
G01X2717800Y-61551D03*
G01X2717800Y-267254D03*
G01X2717800Y-198686D03*
G01X2717800Y-130118D03*
G01X2349500Y-353651D03*
G01X2349500Y-559354D03*
G01X2349500Y-490786D03*
G01X2349500Y-422218D03*
G04 Via End*

G04 Track Start*
G54D11*
G01X2969590Y-629514D02*
G01X2710586Y-629514D01*
G01X2628900Y-711200D01*
G01X2247900Y-711200D02*
G01X2229939Y-693239D01*
G01X2229939Y-596900D01*
G01X2211979Y-578939D01*
G01X2082800Y-578939D01*
G01X2030400Y-526539D01*
G01X2030400Y-210198D01*
G01X2628900Y-711200D02*
G01X2247900Y-711200D01*
G01X2026686Y-1376914D02*
G01X2026686Y-1834502D01*
G01X1826687Y-1834502D02*
G01X1826687Y-1678513D01*
G01X1943100Y-1562100D01*
G01X2969590Y-682498D02*
G01X2721102Y-682498D01*
G01X2026686Y-1376914D01*
G01X3329610Y-788492D02*
G01X3531413Y-788492D01*
G01X3949700Y-370205D01*
G01X3329610Y-841502D02*
G01X3533902Y-841502D01*
G01X3949700Y-1257300D02*
G01X3949700Y-1280795D01*
G01X3533902Y-841502D02*
G01X3949700Y-1257300D01*
G01X3182439Y-1046661D02*
G01X3182439Y-1232837D01*
G01X3187700Y-1238098D01*
G01X3329610Y-947496D02*
G01X3281604Y-947496D01*
G01X3182439Y-1046661D01*
G01X3329610Y-894512D02*
G01X3396412Y-894512D01*
G01X3441700Y-939800D01*
G01X3441700Y-1206195D01*
G01X3409798Y-1238098D01*
G01X3565446Y-584200D02*
G01X3557750Y-576504D01*
G01X3329610Y-576504D01*
G01X3329610Y-629514D02*
G01X3489319Y-629514D01*
G01X3494710Y-634904D01*
G01X4305300Y-584200D02*
G01X4432300Y-711200D01*
G01X4432300Y-800100D01*
G01X4546343Y-914143D01*
G01X4782198Y-914143D01*
G01X2470236Y-1015954D02*
G01X2750683Y-735508D01*
G01X2969590Y-735508D01*
G01X1993900Y-42700D02*
G01X1830400Y-206200D01*
G01X1830400Y-210198D01*
G01X2956890Y-576504D02*
G01X2912721Y-576504D01*
G01X2378917Y-42700D01*
G01X1993900Y-42700D01*
G01X643903Y-611619D02*
G01X715228Y-611619D01*
G01X800964Y-525884D01*
G54D33*
G01X805523Y-1343723D02*
G01X807999Y-1346200D01*
G54D34*
G01X2425306Y-761606D02*
G01X2451100Y-787400D01*
G54D11*
G01X2857500Y-788408D02*
G01X2956806Y-788408D01*
G54D33*
G01X643903Y-976617D02*
G01X735317Y-976617D01*
G01X805523Y-1046823D01*
G01X805523Y-1092200D01*
G01X805523Y-1343723D01*
G54D35*
G01X643903Y-811593D02*
G01X675907Y-811593D01*
G01X681920Y-817606D01*
G01X740885Y-817606D01*
G01X2437100Y-838600D02*
G01X2451100Y-852600D01*
G01X740885Y-817606D02*
G01X761879Y-838600D01*
G01X2437100Y-838600D01*
G54D11*
G01X2832100Y-850900D02*
G01X2841498Y-841502D01*
G01X2956890Y-841502D01*
G01X631203Y-711594D02*
G01X624090Y-718706D01*
G01X564646Y-718706D01*
G01X548303Y-735050D01*
G01X548303Y-788163D01*
G01X564646Y-804506D01*
G01X624116Y-804506D01*
G01X631203Y-811593D01*
G54D34*
G01X631203Y-661606D02*
G01X636215Y-666619D01*
G01X839303Y-761606D02*
G01X2425306Y-761606D01*
G01X643903Y-761606D02*
G01X787006Y-761606D01*
G01X787794Y-761606D01*
G01X839303Y-761606D01*
G01X636215Y-666619D02*
G01X767400Y-666619D01*
G01X787400Y-686619D01*
G01X787400Y-761213D01*
G01X787794Y-761606D01*
G54D11*
G01X3162340Y-681605D02*
G01X3316017Y-681605D01*
G01X3316910Y-682498D01*
G01X1104900Y-914400D02*
G01X1270864Y-1092200D01*
G01X631203Y-911619D02*
G01X663314Y-911619D01*
G01X668516Y-906417D01*
G01X1096917Y-906417D02*
G01X1104900Y-914400D01*
G01X668516Y-906417D02*
G01X1096917Y-906417D01*
G01X3264087Y-735508D02*
G01X3304210Y-735508D01*
G01X3086900Y-743549D02*
G01X3087511Y-742939D01*
G01X3256657Y-742939D01*
G01X3264087Y-735508D01*
G01X2956890Y-894512D02*
G01X2863300Y-894512D01*
G01X2787802Y-970009D01*
G01X2787802Y-1003300D01*
G01X444500Y-1777136D02*
G01X652117Y-1777136D01*
G01X653593Y-1778612D01*
G54D33*
G01X1097001Y-1346200D02*
G01X1097001Y-1468399D01*
G01X952500Y-1612900D01*
G01X658777Y-1612900D01*
G01X653085Y-1618592D01*
G01X1097001Y-1346200D02*
G01X1397000Y-1346200D01*
G01X1587500Y-1536700D01*
G01X1765300Y-1536700D01*
G01X2276673Y-1834502D02*
G01X2737533Y-1834502D01*
G01X2800289Y-1897258D01*
G01X2800289Y-1689191D02*
G01X2800289Y-1897258D01*
G01X2787802Y-1003300D02*
G01X2800289Y-1015787D01*
G01X4305300Y-1365098D02*
G01X4146702Y-1365098D01*
G01X4089400Y-1422400D01*
G01X4089400Y-1600200D01*
G01X4050509Y-1639091D01*
G01X3239291Y-1639091D01*
G01X3048000Y-1447800D01*
G01X2808863Y-1447800D01*
G01X2800289Y-1439226D01*
G01X2800289Y-1015787D02*
G01X2800289Y-1439226D01*
G01X2800289Y-1689191D01*
G01X4305300Y-1365098D02*
G01X4495800Y-1365098D01*
G01X4781230Y-1365098D01*
G01X4782198Y-1364130D01*
G01X5313266Y-1364130D01*
G01X5314241Y-1365105D01*
G01X5516184Y-1365105D01*
G01X5516489Y-1364800D01*
G01X5743392Y-1364800D01*
G01X5744604Y-1366012D01*
G01X1097001Y-431800D02*
G01X965200Y-431800D01*
G01X901700Y-368300D02*
G01X901700Y-260502D01*
G01X965200Y-431800D02*
G01X901700Y-368300D01*
G01X901700Y-260502D02*
G01X1104900Y-260502D01*
G01X1530109Y-260502D02*
G01X1580413Y-210198D01*
G01X1104900Y-260502D02*
G01X1243150Y-260502D01*
G01X1246150Y-257502D01*
G01X1344650Y-257502D01*
G01X1347650Y-260502D01*
G01X1530109Y-260502D01*
G04 Track End*

M02*

