G04 Layer: TopPasteMaskLayer*
G04 EasyEDA Pro v2.2.27.1, 2024-09-16 11:55:17*
G04 Gerber Generator version 0.3*
G04 Scale: 100 percent, Rotated: No, Reflected: No*
G04 Dimensions in millimeters*
G04 Leading zeros omitted, absolute positions, 3 integers and 5 decimals*
%FSLAX35Y35*%
%MOMM*%
%ADD10R,0.8X0.9*%
%ADD11R,0.9X0.8*%
%ADD12R,0.8X0.9*%
%ADD13R,1.2X0.25001*%
%ADD14R,1.3X5.49999*%
%ADD15R,0.9089X0.8*%
%ADD16R,0.9X0.8*%
%ADD17R,0.8001X0.8001*%
%ADD18R,1.19009X1.72799*%
G75*


G04 PolygonModel Start*
G36*
G01X576204Y-876607D02*
G01X686204Y-876607D01*
G01X686204Y-846605D01*
G01X576204Y-846605D01*
G01X576204Y-876607D01*
G37*
G36*
G01X686204Y-896617D02*
G01X576204Y-896617D01*
G01X576204Y-926620D01*
G01X686204Y-926620D01*
G01X686204Y-896617D01*
G37*
G36*
G01X686204Y-386598D02*
G01X576204Y-386598D01*
G01X576204Y-446598D01*
G01X686204Y-446598D01*
G01X686204Y-386598D01*
G37*
G36*
G01X576204Y-826595D02*
G01X686204Y-826595D01*
G01X686204Y-796592D01*
G01X576204Y-796592D01*
G01X576204Y-826595D01*
G37*
G36*
G01X686204Y-946617D02*
G01X576204Y-946617D01*
G01X576204Y-1006617D01*
G01X686204Y-1006617D01*
G01X686204Y-946617D01*
G37*
G36*
G01X576204Y-1086602D02*
G01X686204Y-1086602D01*
G01X686204Y-1026602D01*
G01X576204Y-1026602D01*
G01X576204Y-1086602D01*
G37*
G36*
G01X576204Y-776608D02*
G01X686204Y-776608D01*
G01X686204Y-746605D01*
G01X576204Y-746605D01*
G01X576204Y-776608D01*
G37*
G36*
G01X576204Y-726595D02*
G01X686204Y-726595D01*
G01X686204Y-696592D01*
G01X576204Y-696592D01*
G01X576204Y-726595D01*
G37*
G36*
G01X686204Y-466608D02*
G01X576204Y-466608D01*
G01X576204Y-526608D01*
G01X686204Y-526608D01*
G01X686204Y-466608D01*
G37*
G36*
G01X576204Y-676608D02*
G01X686204Y-676608D01*
G01X686204Y-646605D01*
G01X576204Y-646605D01*
G01X576204Y-676608D01*
G37*
G36*
G01X576204Y-626621D02*
G01X686204Y-626621D01*
G01X686204Y-596618D01*
G01X576204Y-596618D01*
G01X576204Y-626621D01*
G37*
G36*
G01X576204Y-576608D02*
G01X686204Y-576608D01*
G01X686204Y-546605D01*
G01X576204Y-546605D01*
G01X576204Y-576608D01*
G37*
G36*
G01X676044Y-1173582D02*
G01X676194Y-1170595D01*
G01X676194Y-1167602D01*
G01X676044Y-1164615D01*
G01X675747Y-1161639D01*
G01X675300Y-1158679D01*
G01X674708Y-1155748D01*
G01X673969Y-1152848D01*
G01X673087Y-1149990D01*
G01X672064Y-1147178D01*
G01X670903Y-1144422D01*
G01X669605Y-1141725D01*
G01X668172Y-1139099D01*
G01X666613Y-1136546D01*
G01X664929Y-1134074D01*
G01X663120Y-1131689D01*
G01X661198Y-1129398D01*
G01X659163Y-1127204D01*
G01X657022Y-1125116D01*
G01X654779Y-1123135D01*
G01X652440Y-1121270D01*
G01X650011Y-1119525D01*
G01X647497Y-1117902D01*
G01X644906Y-1116406D01*
G01X642244Y-1115040D01*
G01X639519Y-1113810D01*
G01X636732Y-1112718D01*
G01X633898Y-1111763D01*
G01X631017Y-1110953D01*
G01X628101Y-1110287D01*
G01X625155Y-1109769D01*
G01X622186Y-1109396D01*
G01X619201Y-1109172D01*
G01X616212Y-1109099D01*
G01X536212Y-1109099D01*
G01X533222Y-1109172D01*
G01X530238Y-1109396D01*
G01X527268Y-1109769D01*
G01X524322Y-1110287D01*
G01X521406Y-1110953D01*
G01X518526Y-1111763D01*
G01X515691Y-1112718D01*
G01X512905Y-1113810D01*
G01X510179Y-1115040D01*
G01X507517Y-1116406D01*
G01X504927Y-1117902D01*
G01X502412Y-1119525D01*
G01X499984Y-1121270D01*
G01X497644Y-1123135D01*
G01X495402Y-1125116D01*
G01X493260Y-1127204D01*
G01X491226Y-1129398D01*
G01X489303Y-1131689D01*
G01X487495Y-1134074D01*
G01X485811Y-1136546D01*
G01X484251Y-1139099D01*
G01X482818Y-1141725D01*
G01X481521Y-1144422D01*
G01X480360Y-1147178D01*
G01X479336Y-1149990D01*
G01X478455Y-1152848D01*
G01X477716Y-1155748D01*
G01X477124Y-1158679D01*
G01X476677Y-1161639D01*
G01X476380Y-1164615D01*
G01X476230Y-1167602D01*
G01X476230Y-1170595D01*
G01X476380Y-1173582D01*
G01X476677Y-1176558D01*
G01X477124Y-1179518D01*
G01X477716Y-1182449D01*
G01X478455Y-1185349D01*
G01X479336Y-1188207D01*
G01X480360Y-1191019D01*
G01X481521Y-1193775D01*
G01X482818Y-1196472D01*
G01X484251Y-1199098D01*
G01X485811Y-1201651D01*
G01X487495Y-1204123D01*
G01X489303Y-1206508D01*
G01X491226Y-1208799D01*
G01X493260Y-1210993D01*
G01X495402Y-1213081D01*
G01X497644Y-1215062D01*
G01X499984Y-1216927D01*
G01X502412Y-1218672D01*
G01X504927Y-1220295D01*
G01X507517Y-1221791D01*
G01X510179Y-1223157D01*
G01X512905Y-1224387D01*
G01X515691Y-1225479D01*
G01X518526Y-1226434D01*
G01X521406Y-1227244D01*
G01X524322Y-1227910D01*
G01X527268Y-1228428D01*
G01X530238Y-1228801D01*
G01X533222Y-1229025D01*
G01X536212Y-1229098D01*
G01X616212Y-1229098D01*
G01X619201Y-1229025D01*
G01X622186Y-1228801D01*
G01X625155Y-1228428D01*
G01X628101Y-1227910D01*
G01X631017Y-1227244D01*
G01X633898Y-1226434D01*
G01X636732Y-1225479D01*
G01X639519Y-1224387D01*
G01X642244Y-1223157D01*
G01X644906Y-1221791D01*
G01X647497Y-1220295D01*
G01X650011Y-1218672D01*
G01X652440Y-1216927D01*
G01X654779Y-1215062D01*
G01X657022Y-1213081D01*
G01X659163Y-1210993D01*
G01X661198Y-1208799D01*
G01X663120Y-1206508D01*
G01X664929Y-1204123D01*
G01X666613Y-1201651D01*
G01X668172Y-1199098D01*
G01X669605Y-1196472D01*
G01X670903Y-1193775D01*
G01X672064Y-1191019D01*
G01X673087Y-1188207D01*
G01X673969Y-1185349D01*
G01X674708Y-1182449D01*
G01X675300Y-1179518D01*
G01X675747Y-1176558D01*
G01X676044Y-1173582D01*
G37*
G36*
G01X676194Y-302605D02*
G01X676044Y-299618D01*
G01X675747Y-296642D01*
G01X675300Y-293682D01*
G01X674708Y-290751D01*
G01X673969Y-287851D01*
G01X673087Y-284993D01*
G01X672064Y-282181D01*
G01X670903Y-279425D01*
G01X669605Y-276728D01*
G01X668172Y-274102D01*
G01X666613Y-271549D01*
G01X664929Y-269077D01*
G01X663120Y-266692D01*
G01X661198Y-264401D01*
G01X659163Y-262207D01*
G01X657022Y-260119D01*
G01X654779Y-258138D01*
G01X652440Y-256273D01*
G01X650011Y-254528D01*
G01X647497Y-252905D01*
G01X644906Y-251409D01*
G01X642244Y-250043D01*
G01X639519Y-248813D01*
G01X636732Y-247721D01*
G01X633898Y-246766D01*
G01X631017Y-245956D01*
G01X628101Y-245290D01*
G01X625155Y-244772D01*
G01X622186Y-244399D01*
G01X619201Y-244175D01*
G01X616212Y-244102D01*
G01X536212Y-244102D01*
G01X533222Y-244175D01*
G01X530238Y-244399D01*
G01X527268Y-244772D01*
G01X524322Y-245290D01*
G01X521406Y-245956D01*
G01X518526Y-246766D01*
G01X515691Y-247721D01*
G01X512905Y-248813D01*
G01X510179Y-250043D01*
G01X507517Y-251409D01*
G01X504927Y-252905D01*
G01X502412Y-254528D01*
G01X499984Y-256273D01*
G01X497644Y-258138D01*
G01X495402Y-260119D01*
G01X493260Y-262207D01*
G01X491226Y-264401D01*
G01X489303Y-266692D01*
G01X487495Y-269077D01*
G01X485811Y-271549D01*
G01X484251Y-274102D01*
G01X482818Y-276728D01*
G01X481521Y-279425D01*
G01X480360Y-282181D01*
G01X479336Y-284993D01*
G01X478455Y-287851D01*
G01X477716Y-290751D01*
G01X477124Y-293682D01*
G01X476677Y-296642D01*
G01X476380Y-299618D01*
G01X476230Y-302605D01*
G01X476230Y-305598D01*
G01X476380Y-308585D01*
G01X476677Y-311561D01*
G01X477124Y-314521D01*
G01X477716Y-317452D01*
G01X478455Y-320352D01*
G01X479336Y-323210D01*
G01X480360Y-326022D01*
G01X481521Y-328778D01*
G01X482818Y-331475D01*
G01X484251Y-334101D01*
G01X485811Y-336654D01*
G01X487495Y-339126D01*
G01X489303Y-341511D01*
G01X491226Y-343802D01*
G01X493260Y-345996D01*
G01X495402Y-348084D01*
G01X497644Y-350065D01*
G01X499984Y-351930D01*
G01X502412Y-353675D01*
G01X504927Y-355298D01*
G01X507517Y-356794D01*
G01X510179Y-358160D01*
G01X512905Y-359390D01*
G01X515691Y-360482D01*
G01X518526Y-361437D01*
G01X521406Y-362247D01*
G01X524322Y-362913D01*
G01X527268Y-363431D01*
G01X530238Y-363804D01*
G01X533222Y-364028D01*
G01X536212Y-364101D01*
G01X616212Y-364101D01*
G01X619201Y-364028D01*
G01X622186Y-363804D01*
G01X625155Y-363431D01*
G01X628101Y-362913D01*
G01X631017Y-362247D01*
G01X633898Y-361437D01*
G01X636732Y-360482D01*
G01X639519Y-359390D01*
G01X642244Y-358160D01*
G01X644906Y-356794D01*
G01X647497Y-355298D01*
G01X650011Y-353675D01*
G01X652440Y-351930D01*
G01X654779Y-350065D01*
G01X657022Y-348084D01*
G01X659163Y-345996D01*
G01X661198Y-343802D01*
G01X663120Y-341511D01*
G01X664929Y-339126D01*
G01X666613Y-336654D01*
G01X668172Y-334101D01*
G01X669605Y-331475D01*
G01X670903Y-328778D01*
G01X672064Y-326022D01*
G01X673087Y-323210D01*
G01X673969Y-320352D01*
G01X674708Y-317452D01*
G01X675300Y-314521D01*
G01X675747Y-311561D01*
G01X676044Y-308585D01*
G01X676194Y-305598D01*
G01X676194Y-302605D01*
G37*
G36*
G01X231028Y-308585D02*
G01X231178Y-305598D01*
G01X231178Y-302605D01*
G01X231028Y-299618D01*
G01X230731Y-296642D01*
G01X230284Y-293682D01*
G01X229692Y-290751D01*
G01X228953Y-287851D01*
G01X228072Y-284993D01*
G01X227048Y-282181D01*
G01X225887Y-279425D01*
G01X224589Y-276728D01*
G01X223157Y-274102D01*
G01X221597Y-271549D01*
G01X219913Y-269077D01*
G01X218105Y-266692D01*
G01X216182Y-264401D01*
G01X214147Y-262207D01*
G01X212006Y-260119D01*
G01X209763Y-258138D01*
G01X207424Y-256273D01*
G01X204996Y-254528D01*
G01X202481Y-252905D01*
G01X199890Y-251409D01*
G01X197228Y-250043D01*
G01X194503Y-248813D01*
G01X191717Y-247721D01*
G01X188882Y-246766D01*
G01X186002Y-245956D01*
G01X183086Y-245290D01*
G01X180139Y-244772D01*
G01X177170Y-244399D01*
G01X174186Y-244175D01*
G01X171196Y-244102D01*
G01X141196Y-244102D01*
G01X138206Y-244175D01*
G01X135222Y-244399D01*
G01X132253Y-244772D01*
G01X129306Y-245290D01*
G01X126390Y-245956D01*
G01X123510Y-246766D01*
G01X120675Y-247721D01*
G01X117889Y-248813D01*
G01X115164Y-250043D01*
G01X112502Y-251409D01*
G01X109911Y-252905D01*
G01X107396Y-254528D01*
G01X104968Y-256273D01*
G01X102629Y-258138D01*
G01X100386Y-260119D01*
G01X98245Y-262207D01*
G01X96210Y-264401D01*
G01X94287Y-266692D01*
G01X92479Y-269077D01*
G01X90795Y-271549D01*
G01X89235Y-274102D01*
G01X87803Y-276728D01*
G01X86505Y-279425D01*
G01X85344Y-282181D01*
G01X84320Y-284993D01*
G01X83439Y-287851D01*
G01X82700Y-290751D01*
G01X82108Y-293682D01*
G01X81661Y-296642D01*
G01X81364Y-299618D01*
G01X81214Y-302605D01*
G01X81214Y-305598D01*
G01X81364Y-308585D01*
G01X81661Y-311561D01*
G01X82108Y-314521D01*
G01X82700Y-317452D01*
G01X83439Y-320352D01*
G01X84320Y-323210D01*
G01X85344Y-326022D01*
G01X86505Y-328778D01*
G01X87803Y-331475D01*
G01X89235Y-334101D01*
G01X90795Y-336654D01*
G01X92479Y-339126D01*
G01X94287Y-341511D01*
G01X96210Y-343802D01*
G01X98245Y-345996D01*
G01X100386Y-348084D01*
G01X102629Y-350065D01*
G01X104968Y-351930D01*
G01X107396Y-353675D01*
G01X109911Y-355298D01*
G01X112502Y-356794D01*
G01X115164Y-358160D01*
G01X117889Y-359390D01*
G01X120675Y-360482D01*
G01X123510Y-361437D01*
G01X126390Y-362247D01*
G01X129306Y-362913D01*
G01X132253Y-363431D01*
G01X135222Y-363804D01*
G01X138206Y-364028D01*
G01X141196Y-364101D01*
G01X171196Y-364101D01*
G01X174186Y-364028D01*
G01X177170Y-363804D01*
G01X180139Y-363431D01*
G01X183086Y-362913D01*
G01X186002Y-362247D01*
G01X188882Y-361437D01*
G01X191717Y-360482D01*
G01X194503Y-359390D01*
G01X197228Y-358160D01*
G01X199890Y-356794D01*
G01X202481Y-355298D01*
G01X204996Y-353675D01*
G01X207424Y-351930D01*
G01X209763Y-350065D01*
G01X212006Y-348084D01*
G01X214147Y-345996D01*
G01X216182Y-343802D01*
G01X218105Y-341511D01*
G01X219913Y-339126D01*
G01X221597Y-336654D01*
G01X223157Y-334101D01*
G01X224589Y-331475D01*
G01X225887Y-328778D01*
G01X227048Y-326022D01*
G01X228072Y-323210D01*
G01X228953Y-320352D01*
G01X229692Y-317452D01*
G01X230284Y-314521D01*
G01X230731Y-311561D01*
G01X231028Y-308585D01*
G37*
G36*
G01X231178Y-1167602D02*
G01X231028Y-1164615D01*
G01X230731Y-1161639D01*
G01X230284Y-1158679D01*
G01X229692Y-1155748D01*
G01X228953Y-1152848D01*
G01X228072Y-1149990D01*
G01X227048Y-1147178D01*
G01X225887Y-1144422D01*
G01X224589Y-1141725D01*
G01X223157Y-1139099D01*
G01X221597Y-1136546D01*
G01X219913Y-1134074D01*
G01X218105Y-1131689D01*
G01X216182Y-1129398D01*
G01X214147Y-1127204D01*
G01X212006Y-1125116D01*
G01X209763Y-1123135D01*
G01X207424Y-1121270D01*
G01X204996Y-1119525D01*
G01X202481Y-1117902D01*
G01X199890Y-1116406D01*
G01X197228Y-1115040D01*
G01X194503Y-1113810D01*
G01X191717Y-1112718D01*
G01X188882Y-1111763D01*
G01X186002Y-1110953D01*
G01X183086Y-1110287D01*
G01X180139Y-1109769D01*
G01X177170Y-1109396D01*
G01X174186Y-1109172D01*
G01X171196Y-1109099D01*
G01X141196Y-1109099D01*
G01X138206Y-1109172D01*
G01X135222Y-1109396D01*
G01X132253Y-1109769D01*
G01X129306Y-1110287D01*
G01X126390Y-1110953D01*
G01X123510Y-1111763D01*
G01X120675Y-1112718D01*
G01X117889Y-1113810D01*
G01X115164Y-1115040D01*
G01X112502Y-1116406D01*
G01X109911Y-1117902D01*
G01X107396Y-1119525D01*
G01X104968Y-1121270D01*
G01X102629Y-1123135D01*
G01X100386Y-1125116D01*
G01X98245Y-1127204D01*
G01X96210Y-1129398D01*
G01X94287Y-1131689D01*
G01X92479Y-1134074D01*
G01X90795Y-1136546D01*
G01X89235Y-1139099D01*
G01X87803Y-1141725D01*
G01X86505Y-1144422D01*
G01X85344Y-1147178D01*
G01X84320Y-1149990D01*
G01X83439Y-1152848D01*
G01X82700Y-1155748D01*
G01X82108Y-1158679D01*
G01X81661Y-1161639D01*
G01X81364Y-1164615D01*
G01X81214Y-1167602D01*
G01X81214Y-1170595D01*
G01X81364Y-1173582D01*
G01X81661Y-1176558D01*
G01X82108Y-1179518D01*
G01X82700Y-1182449D01*
G01X83439Y-1185349D01*
G01X84320Y-1188207D01*
G01X85344Y-1191019D01*
G01X86505Y-1193775D01*
G01X87803Y-1196472D01*
G01X89235Y-1199098D01*
G01X90795Y-1201651D01*
G01X92479Y-1204123D01*
G01X94287Y-1206508D01*
G01X96210Y-1208799D01*
G01X98245Y-1210993D01*
G01X100386Y-1213081D01*
G01X102629Y-1215062D01*
G01X104968Y-1216927D01*
G01X107396Y-1218672D01*
G01X109911Y-1220295D01*
G01X112502Y-1221791D01*
G01X115164Y-1223157D01*
G01X117889Y-1224387D01*
G01X120675Y-1225479D01*
G01X123510Y-1226434D01*
G01X126390Y-1227244D01*
G01X129306Y-1227910D01*
G01X132253Y-1228428D01*
G01X135222Y-1228801D01*
G01X138206Y-1229025D01*
G01X141196Y-1229098D01*
G01X171196Y-1229098D01*
G01X174186Y-1229025D01*
G01X177170Y-1228801D01*
G01X180139Y-1228428D01*
G01X183086Y-1227910D01*
G01X186002Y-1227244D01*
G01X188882Y-1226434D01*
G01X191717Y-1225479D01*
G01X194503Y-1224387D01*
G01X197228Y-1223157D01*
G01X199890Y-1221791D01*
G01X202481Y-1220295D01*
G01X204996Y-1218672D01*
G01X207424Y-1216927D01*
G01X209763Y-1215062D01*
G01X212006Y-1213081D01*
G01X214147Y-1210993D01*
G01X216182Y-1208799D01*
G01X218105Y-1206508D01*
G01X219913Y-1204123D01*
G01X221597Y-1201651D01*
G01X223157Y-1199098D01*
G01X224589Y-1196472D01*
G01X225887Y-1193775D01*
G01X227048Y-1191019D01*
G01X228072Y-1188207D01*
G01X228953Y-1185349D01*
G01X229692Y-1182449D01*
G01X230284Y-1179518D01*
G01X230731Y-1176558D01*
G01X231028Y-1173582D01*
G01X231178Y-1170595D01*
G01X231178Y-1167602D01*
G37*
G36*
G01X1226698Y-1137199D02*
G01X1306698Y-1137199D01*
G01X1311699Y-1132197D01*
G01X1311699Y-1109401D01*
G01X1274699Y-1109401D01*
G01X1274699Y-1076401D01*
G01X1311699Y-1076401D01*
G01X1311699Y-1052198D01*
G01X1306698Y-1047199D01*
G01X1226698Y-1047199D01*
G01X1221699Y-1052198D01*
G01X1221699Y-1132197D01*
G01X1226698Y-1137199D01*
G37*
G36*
G01X1465702Y-1047201D02*
G01X1385702Y-1047201D01*
G01X1380701Y-1052203D01*
G01X1380701Y-1074999D01*
G01X1417701Y-1074999D01*
G01X1417701Y-1107999D01*
G01X1380701Y-1107999D01*
G01X1380701Y-1132202D01*
G01X1385702Y-1137201D01*
G01X1465702Y-1137201D01*
G01X1470701Y-1132202D01*
G01X1470701Y-1052203D01*
G01X1465702Y-1047201D01*
G37*
G36*
G01X756798Y-570883D02*
G01X836798Y-570883D01*
G01X841799Y-565882D01*
G01X841799Y-543085D01*
G01X804799Y-543085D01*
G01X804799Y-510085D01*
G01X841799Y-510085D01*
G01X841799Y-485882D01*
G01X836798Y-480883D01*
G01X756798Y-480883D01*
G01X751799Y-485882D01*
G01X751799Y-565882D01*
G01X756798Y-570883D01*
G37*
G36*
G01X995802Y-480885D02*
G01X915802Y-480885D01*
G01X910801Y-485887D01*
G01X910801Y-508683D01*
G01X947801Y-508683D01*
G01X947801Y-541683D01*
G01X910801Y-541683D01*
G01X910801Y-565887D01*
G01X915802Y-570885D01*
G01X995802Y-570885D01*
G01X1000801Y-565887D01*
G01X1000801Y-485887D01*
G01X995802Y-480885D01*
G37*
G36*
G01X489499Y-1821302D02*
G01X489499Y-1741302D01*
G01X484497Y-1736301D01*
G01X461701Y-1736301D01*
G01X461701Y-1773301D01*
G01X428701Y-1773301D01*
G01X428701Y-1736301D01*
G01X404498Y-1736301D01*
G01X399499Y-1741302D01*
G01X399499Y-1821302D01*
G01X404498Y-1826301D01*
G01X484497Y-1826301D01*
G01X489499Y-1821302D01*
G37*
G36*
G01X399501Y-1582298D02*
G01X399501Y-1662298D01*
G01X404503Y-1667299D01*
G01X427299Y-1667299D01*
G01X427299Y-1630299D01*
G01X460299Y-1630299D01*
G01X460299Y-1667299D01*
G01X484502Y-1667299D01*
G01X489501Y-1662298D01*
G01X489501Y-1582298D01*
G01X484502Y-1577299D01*
G01X404503Y-1577299D01*
G01X399501Y-1582298D01*
G37*

G04 Pad Start*
G54D10*
G01X2787802Y-1003300D03*
G01X2647798Y-1003300D03*
G54D11*
G01X3187700Y-1238098D03*
G01X3187700Y-1378102D03*
G01X3441700Y-1238098D03*
G01X3441700Y-1378102D03*
G54D12*
G01X805523Y-1092200D03*
G01X945528Y-1092200D03*
G54D13*
G01X2944190Y-576504D03*
G01X2944190Y-629514D03*
G01X2944190Y-682498D03*
G01X2944190Y-735508D03*
G01X2944190Y-788492D03*
G01X2944190Y-841502D03*
G01X2944190Y-894512D03*
G01X2944190Y-947496D03*
G01X3304210Y-947496D03*
G01X3304210Y-894512D03*
G01X3304210Y-841502D03*
G01X3304210Y-788492D03*
G01X3304210Y-735508D03*
G01X3304210Y-682498D03*
G01X3304210Y-629514D03*
G01X3304210Y-576504D03*
G54D14*
G01X3949700Y-1280795D03*
G01X3949700Y-370205D03*
G54D11*
G01X5314241Y-1365105D03*
G01X5314241Y-1505110D03*
G01X5516489Y-1364800D03*
G01X5516489Y-1504805D03*
G01X4305300Y-1365098D03*
G01X4305300Y-1505102D03*
G01X4495800Y-1365098D03*
G01X4495800Y-1505102D03*
G54D12*
G01X2800198Y-1689100D03*
G01X2940202Y-1689100D03*
G01X2800289Y-1897258D03*
G01X2940294Y-1897258D03*
G54D16*
G01X901700Y-260502D03*
G01X901700Y-120498D03*
G01X1104900Y-260502D03*
G01X1104900Y-120498D03*
G54D17*
G01X653593Y-1778612D03*
G01X653085Y-1618592D03*
G54D18*
G01X807999Y-1346200D03*
G01X1097001Y-1346200D03*
G04 Pad End*

M02*

