;TYPE=PLATED
;Layer: PTH_Through
;EasyEDA Pro v2.2.27.1, 2024-09-16 12:01:29
;Gerber Generator version 0.3
M48
METRIC,LZ,000.00000
;Hole size 1 = 0.30500 METRIC
T01C0.30500
;Hole size 2 = 0.60000 METRIC
T02C0.60000
;Hole size 3 = 0.91440 METRIC
T03C0.91440
;Hole size 4 = 1.10002 METRIC
T04C1.10002
;Hole size 5 = 1.50000 METRIC
T05C1.50000
%
G05
G90
T01
X13.6525Y-6.4135
X41.93546Y-30.7975
X42.9514Y-30.7975
X44.5516Y-30.7975
X50.7365Y-13.3985
X36.2585Y-36.5125
X36.19652Y-22.5425
X51.2445Y-21.70455
X51.2445Y-26.50439
X51.2445Y-27.30449
X51.2445Y-23.3045
X57.5945Y-12.0015
X32.893Y-10.414
X54.2925Y-7.74548
X57.277Y-17.526
X58.1356Y-17.526
X58.9942Y-17.526
X59.8528Y-17.526
X61.722Y-17.93473
X61.722Y-20.51053
X61.722Y-18.79333
X61.722Y-19.65193
X61.468Y-31.30553
X61.468Y-28.72973
X61.468Y-30.44693
X61.468Y-29.58833
X57.277Y-33.09399
X59.8528Y-33.09399
X58.1356Y-33.09399
X58.9942Y-33.09399
X65.21447Y-43.307
X67.79027Y-43.307
X66.07307Y-43.307
X66.93167Y-43.307
X6.41347Y-45.72
X8.98927Y-45.72
X7.27207Y-45.72
X8.13067Y-45.72
X6.41347Y-44.196
X8.98927Y-44.196
X7.27207Y-44.196
X8.13067Y-44.196
X13.14447Y-26.924
X15.72027Y-26.924
X14.00307Y-26.924
X14.86167Y-26.924
X14.16047Y-25.146
X16.73627Y-25.146
X15.01907Y-25.146
X15.87767Y-25.146
X24.95547Y-10.033
X27.53127Y-10.033
X25.81407Y-10.033
X26.67267Y-10.033
X59.88047Y-15.24
X62.45627Y-15.24
X60.73907Y-15.24
X61.59767Y-15.24
X50.165Y-8.82653
X50.165Y-6.25073
X50.165Y-7.96793
X50.165Y-7.10933
X37.973Y-30.92453
X37.973Y-28.34873
X37.973Y-30.06593
X37.973Y-29.20733
X36.068Y-30.92453
X36.068Y-28.34873
X36.068Y-30.06593
X36.068Y-29.20733
T02
X5.96151Y-15.17853G85X5.26148Y-15.17853
X5.96151Y-6.53847G85X5.26148Y-6.53847
X2.21145Y-6.53847G85X1.51143Y-6.53847
X2.21145Y-15.17853G85X1.51143Y-15.17853
T03
X66.9925Y-36.5125
X69.5325Y-36.5125
X4.8749Y-28.92764
X2.3349Y-28.92764
X4.8749Y-35.00607
X2.3349Y-35.00607
X4.8749Y-41.0845
X2.3349Y-41.0845
X4.8895Y-23.0505
X2.3495Y-23.0505
T04
X25.3365Y-13.7795
X25.3365Y-16.3195
X25.3365Y-18.8595
X25.3365Y-21.3995
X25.3365Y-23.9395
X25.3365Y-26.4795
X25.3365Y-29.0195
X25.3365Y-31.5595
X25.3365Y-34.0995
X25.3365Y-36.6395
X56.4515Y-2.8575
X53.9115Y-2.8575
X51.3715Y-2.8575
X48.8315Y-2.8575
X46.2915Y-2.8575
X43.7515Y-2.8575
X41.2115Y-2.8575
X38.6715Y-2.8575
X36.1315Y-2.8575
X33.5915Y-2.8575
X68.7705Y-30.4165
X68.7705Y-27.8765
X68.7705Y-25.3365
X68.7705Y-22.7965
X68.7705Y-20.2565
X68.7705Y-17.7165
X68.7705Y-15.1765
X68.7705Y-12.6365
X68.7705Y-10.0965
X68.7705Y-7.5565
X39.1795Y-43.6245
X41.7195Y-43.6245
X44.2595Y-43.6245
X46.7995Y-43.6245
X49.3395Y-43.6245
X51.8795Y-43.6245
X54.4195Y-43.6245
X56.9595Y-43.6245
X59.4995Y-43.6245
X62.0395Y-43.6245
X22.5475Y-2.8575
X25.0875Y-2.8575
X27.6275Y-2.8575
X30.1675Y-2.8575
X11.4935Y-2.8575
X14.0335Y-2.8575
X16.5735Y-2.8575
X19.1135Y-2.8575
X22.5475Y-6.7945
X25.0875Y-6.7945
X27.6275Y-6.7945
X30.1675Y-6.7945
X36.0045Y-43.6245
X33.4645Y-43.6245
X30.9245Y-43.6245
X28.3845Y-43.6245
T05
X2.428Y-1.79349
X69.5325Y-1.79349
X69.5325Y-45.4025
X2.428Y-45.67208
M30