;TYPE=PLATED
;Layer: PTH_Through_Via
;EasyEDA Pro v2.2.27.1, 2024-09-16 12:01:29
;Gerber Generator version 0.3
M48
METRIC,LZ,000.00000
;Hole size 1 = 0.30500 METRIC
T01C0.30500
;Hole size 2 = 1.50000 METRIC
T02C1.50000
%
G05
G90
T01
X13.6525Y-6.4135
X41.93546Y-30.7975
X42.9514Y-30.7975
X44.5516Y-30.7975
X50.7365Y-13.3985
X36.2585Y-36.5125
X36.19652Y-22.5425
X51.2445Y-21.70455
X51.2445Y-26.50439
X51.2445Y-27.30449
X51.2445Y-23.3045
X57.5945Y-12.0015
X32.893Y-10.414
X54.2925Y-7.74548
X57.277Y-17.526
X58.1356Y-17.526
X58.9942Y-17.526
X59.8528Y-17.526
X61.722Y-17.93473
X61.722Y-20.51053
X61.722Y-18.79333
X61.722Y-19.65193
X61.468Y-31.30553
X61.468Y-28.72973
X61.468Y-30.44693
X61.468Y-29.58833
X57.277Y-33.09399
X59.8528Y-33.09399
X58.1356Y-33.09399
X58.9942Y-33.09399
X65.21447Y-43.307
X67.79027Y-43.307
X66.07307Y-43.307
X66.93167Y-43.307
X6.41347Y-45.72
X8.98927Y-45.72
X7.27207Y-45.72
X8.13067Y-45.72
X6.41347Y-44.196
X8.98927Y-44.196
X7.27207Y-44.196
X8.13067Y-44.196
X13.14447Y-26.924
X15.72027Y-26.924
X14.00307Y-26.924
X14.86167Y-26.924
X14.16047Y-25.146
X16.73627Y-25.146
X15.01907Y-25.146
X15.87767Y-25.146
X24.95547Y-10.033
X27.53127Y-10.033
X25.81407Y-10.033
X26.67267Y-10.033
X59.88047Y-15.24
X62.45627Y-15.24
X60.73907Y-15.24
X61.59767Y-15.24
X50.165Y-8.82653
X50.165Y-6.25073
X50.165Y-7.96793
X50.165Y-7.10933
X37.973Y-30.92453
X37.973Y-28.34873
X37.973Y-30.06593
X37.973Y-29.20733
X36.068Y-30.92453
X36.068Y-28.34873
X36.068Y-30.06593
X36.068Y-29.20733
T02
X2.428Y-1.79349
X69.5325Y-1.79349
X69.5325Y-45.4025
X2.428Y-45.67208
M30