G04 Layer: BottomPasteMaskLayer*
G04 EasyEDA Pro v2.2.27.1, 2024-09-16 12:01:29*
G04 Gerber Generator version 0.3*
G04 Scale: 100 percent, Rotated: No, Reflected: No*
G04 Dimensions in millimeters*
G04 Leading zeros omitted, absolute positions, 3 integers and 5 decimals*
%FSLAX35Y35*%
%MOMM*%
%ADD10C,0.254*%
G75*


G04 PolygonModel Start*
G36*
G01X3017619Y-2181184D02*
G01X2937619Y-2181184D01*
G01X2932618Y-2176183D01*
G01X2932618Y-2153387D01*
G01X2969618Y-2153387D01*
G01X2969618Y-2120387D01*
G01X2932618Y-2120387D01*
G01X2932618Y-2096183D01*
G01X2937619Y-2091185D01*
G01X3017619Y-2091185D01*
G01X3022618Y-2096183D01*
G01X3022618Y-2176183D01*
G01X3017619Y-2181184D01*
G37*
G36*
G01X2778615Y-2091187D02*
G01X2858615Y-2091187D01*
G01X2863616Y-2096188D01*
G01X2863616Y-2118985D01*
G01X2826616Y-2118985D01*
G01X2826616Y-2151985D01*
G01X2863616Y-2151985D01*
G01X2863616Y-2176188D01*
G01X2858615Y-2181187D01*
G01X2778615Y-2181187D01*
G01X2773617Y-2176188D01*
G01X2773617Y-2096188D01*
G01X2778615Y-2091187D01*
G37*
G36*
G01X3019346Y-1928790D02*
G01X2939346Y-1928790D01*
G01X2934345Y-1923789D01*
G01X2934345Y-1900993D01*
G01X2971345Y-1900993D01*
G01X2971345Y-1867993D01*
G01X2934345Y-1867993D01*
G01X2934345Y-1843789D01*
G01X2939346Y-1838791D01*
G01X3019346Y-1838791D01*
G01X3024345Y-1843789D01*
G01X3024345Y-1923789D01*
G01X3019346Y-1928790D01*
G37*
G36*
G01X2780342Y-1838793D02*
G01X2860342Y-1838793D01*
G01X2865344Y-1843794D01*
G01X2865344Y-1866591D01*
G01X2828343Y-1866591D01*
G01X2828343Y-1899591D01*
G01X2865344Y-1899591D01*
G01X2865344Y-1923794D01*
G01X2860342Y-1928793D01*
G01X2780342Y-1928793D01*
G01X2775344Y-1923794D01*
G01X2775344Y-1843794D01*
G01X2780342Y-1838793D01*
G37*
G36*
G01X3019346Y-1676397D02*
G01X2939346Y-1676397D01*
G01X2934345Y-1671395D01*
G01X2934345Y-1648599D01*
G01X2971345Y-1648599D01*
G01X2971345Y-1615599D01*
G01X2934345Y-1615599D01*
G01X2934345Y-1591396D01*
G01X2939346Y-1586397D01*
G01X3019346Y-1586397D01*
G01X3024345Y-1591396D01*
G01X3024345Y-1671395D01*
G01X3019346Y-1676397D01*
G37*
G36*
G01X2780342Y-1586399D02*
G01X2860342Y-1586399D01*
G01X2865344Y-1591401D01*
G01X2865344Y-1614197D01*
G01X2828343Y-1614197D01*
G01X2828343Y-1647197D01*
G01X2865344Y-1647197D01*
G01X2865344Y-1671401D01*
G01X2860342Y-1676399D01*
G01X2780342Y-1676399D01*
G01X2775344Y-1671401D01*
G01X2775344Y-1591401D01*
G01X2780342Y-1586399D01*
G37*
G36*
G01X3019346Y-1424003D02*
G01X2939346Y-1424003D01*
G01X2934345Y-1419001D01*
G01X2934345Y-1396205D01*
G01X2971345Y-1396205D01*
G01X2971345Y-1363205D01*
G01X2934345Y-1363205D01*
G01X2934345Y-1339002D01*
G01X2939346Y-1334003D01*
G01X3019346Y-1334003D01*
G01X3024345Y-1339002D01*
G01X3024345Y-1419001D01*
G01X3019346Y-1424003D01*
G37*
G36*
G01X2780342Y-1334005D02*
G01X2860342Y-1334005D01*
G01X2865344Y-1339007D01*
G01X2865344Y-1361803D01*
G01X2828343Y-1361803D01*
G01X2828343Y-1394803D01*
G01X2865344Y-1394803D01*
G01X2865344Y-1419007D01*
G01X2860342Y-1424005D01*
G01X2780342Y-1424005D01*
G01X2775344Y-1419007D01*
G01X2775344Y-1339007D01*
G01X2780342Y-1334005D01*
G37*
G36*
G01X3314151Y-900552D02*
G01X3314151Y-820552D01*
G01X3319153Y-815551D01*
G01X3341949Y-815551D01*
G01X3341949Y-852551D01*
G01X3374949Y-852551D01*
G01X3374949Y-815551D01*
G01X3399152Y-815551D01*
G01X3404151Y-820552D01*
G01X3404151Y-900552D01*
G01X3399152Y-905551D01*
G01X3319153Y-905551D01*
G01X3314151Y-900552D01*
G37*
G36*
G01X3404149Y-661548D02*
G01X3404149Y-741548D01*
G01X3399147Y-746549D01*
G01X3376351Y-746549D01*
G01X3376351Y-709549D01*
G01X3343351Y-709549D01*
G01X3343351Y-746549D01*
G01X3319148Y-746549D01*
G01X3314149Y-741548D01*
G01X3314149Y-661548D01*
G01X3319148Y-656549D01*
G01X3399147Y-656549D01*
G01X3404149Y-661548D01*
G37*
G36*
G01X3568151Y-900552D02*
G01X3568151Y-820552D01*
G01X3573153Y-815551D01*
G01X3595949Y-815551D01*
G01X3595949Y-852551D01*
G01X3628949Y-852551D01*
G01X3628949Y-815551D01*
G01X3653152Y-815551D01*
G01X3658151Y-820552D01*
G01X3658151Y-900552D01*
G01X3653152Y-905551D01*
G01X3573153Y-905551D01*
G01X3568151Y-900552D01*
G37*
G36*
G01X3658149Y-661548D02*
G01X3658149Y-741548D01*
G01X3653147Y-746549D01*
G01X3630351Y-746549D01*
G01X3630351Y-709549D01*
G01X3597351Y-709549D01*
G01X3597351Y-746549D01*
G01X3573148Y-746549D01*
G01X3568149Y-741548D01*
G01X3568149Y-661548D01*
G01X3573148Y-656549D01*
G01X3653147Y-656549D01*
G01X3658149Y-661548D01*
G37*
G36*
G01X4076151Y-900552D02*
G01X4076151Y-820552D01*
G01X4081153Y-815551D01*
G01X4103949Y-815551D01*
G01X4103949Y-852551D01*
G01X4136949Y-852551D01*
G01X4136949Y-815551D01*
G01X4161152Y-815551D01*
G01X4166151Y-820552D01*
G01X4166151Y-900552D01*
G01X4161152Y-905551D01*
G01X4081153Y-905551D01*
G01X4076151Y-900552D01*
G37*
G36*
G01X4166149Y-661548D02*
G01X4166149Y-741548D01*
G01X4161147Y-746549D01*
G01X4138351Y-746549D01*
G01X4138351Y-709549D01*
G01X4105351Y-709549D01*
G01X4105351Y-746549D01*
G01X4081148Y-746549D01*
G01X4076149Y-741548D01*
G01X4076149Y-661548D01*
G01X4081148Y-656549D01*
G01X4161147Y-656549D01*
G01X4166149Y-661548D01*
G37*
G36*
G01X3822151Y-900552D02*
G01X3822151Y-820552D01*
G01X3827153Y-815551D01*
G01X3849949Y-815551D01*
G01X3849949Y-852551D01*
G01X3882949Y-852551D01*
G01X3882949Y-815551D01*
G01X3907152Y-815551D01*
G01X3912151Y-820552D01*
G01X3912151Y-900552D01*
G01X3907152Y-905551D01*
G01X3827153Y-905551D01*
G01X3822151Y-900552D01*
G37*
G36*
G01X3912149Y-661548D02*
G01X3912149Y-741548D01*
G01X3907147Y-746549D01*
G01X3884351Y-746549D01*
G01X3884351Y-709549D01*
G01X3851351Y-709549D01*
G01X3851351Y-746549D01*
G01X3827148Y-746549D01*
G01X3822149Y-741548D01*
G01X3822149Y-661548D01*
G01X3827148Y-656549D01*
G01X3907147Y-656549D01*
G01X3912149Y-661548D01*
G37*

G04 Pad Start*
G04 Pad End*
G54D10*

M02*

