G04 Layer: BottomSilkscreenLayer*
G04 EasyEDA Pro v2.2.27.1, 2024-09-16 12:01:29*
G04 Gerber Generator version 0.3*
G04 Scale: 100 percent, Rotated: No, Reflected: No*
G04 Dimensions in millimeters*
G04 Leading zeros omitted, absolute positions, 3 integers and 5 decimals*
%FSLAX35Y35*%
%MOMM*%
%ADD10C,0.1524*%
G75*


G04 Text Start*
G54D10*
G01X3061970Y-2163155D02*
G01X3061970Y-2098131D01*
G01X3061970Y-2163155D02*
G01X3089910Y-2163155D01*
G01X3099054Y-2160107D01*
G01X3102102Y-2157059D01*
G01X3105404Y-2150709D01*
G01X3105404Y-2144613D01*
G01X3102102Y-2138517D01*
G01X3099054Y-2135469D01*
G01X3089910Y-2132167D01*
G01X3061970Y-2132167D01*
G01X3083560Y-2132167D02*
G01X3105404Y-2098131D01*
G01X3166364Y-2163155D02*
G01X3135630Y-2119975D01*
G01X3181858Y-2119975D01*
G01X3166364Y-2163155D02*
G01X3166364Y-2098131D01*
G01X3061970Y-1924365D02*
G01X3061970Y-1859341D01*
G01X3061970Y-1924365D02*
G01X3089910Y-1924365D01*
G01X3099054Y-1921317D01*
G01X3102102Y-1918269D01*
G01X3105404Y-1911919D01*
G01X3105404Y-1905823D01*
G01X3102102Y-1899727D01*
G01X3099054Y-1896679D01*
G01X3089910Y-1893377D01*
G01X3061970Y-1893377D01*
G01X3083560Y-1893377D02*
G01X3105404Y-1859341D01*
G01X3172714Y-1924365D02*
G01X3141726Y-1924365D01*
G01X3138678Y-1896679D01*
G01X3141726Y-1899727D01*
G01X3150870Y-1902775D01*
G01X3160268Y-1902775D01*
G01X3169666Y-1899727D01*
G01X3175762Y-1893377D01*
G01X3178810Y-1884233D01*
G01X3178810Y-1877883D01*
G01X3175762Y-1868739D01*
G01X3169666Y-1862389D01*
G01X3160268Y-1859341D01*
G01X3150870Y-1859341D01*
G01X3141726Y-1862389D01*
G01X3138678Y-1865691D01*
G01X3135630Y-1871787D01*
G01X3061970Y-1685574D02*
G01X3061970Y-1620550D01*
G01X3061970Y-1685574D02*
G01X3089910Y-1685574D01*
G01X3099054Y-1682526D01*
G01X3102102Y-1679478D01*
G01X3105404Y-1673128D01*
G01X3105404Y-1667032D01*
G01X3102102Y-1660936D01*
G01X3099054Y-1657888D01*
G01X3089910Y-1654586D01*
G01X3061970Y-1654586D01*
G01X3083560Y-1654586D02*
G01X3105404Y-1620550D01*
G01X3172714Y-1676430D02*
G01X3169666Y-1682526D01*
G01X3160268Y-1685574D01*
G01X3154172Y-1685574D01*
G01X3144774Y-1682526D01*
G01X3138678Y-1673128D01*
G01X3135630Y-1657888D01*
G01X3135630Y-1642394D01*
G01X3138678Y-1629948D01*
G01X3144774Y-1623598D01*
G01X3154172Y-1620550D01*
G01X3157220Y-1620550D01*
G01X3166364Y-1623598D01*
G01X3172714Y-1629948D01*
G01X3175762Y-1639092D01*
G01X3175762Y-1642394D01*
G01X3172714Y-1651538D01*
G01X3166364Y-1657888D01*
G01X3157220Y-1660936D01*
G01X3154172Y-1660936D01*
G01X3144774Y-1657888D01*
G01X3138678Y-1651538D01*
G01X3135630Y-1642394D01*
G01X3061970Y-1446784D02*
G01X3061970Y-1381760D01*
G01X3061970Y-1446784D02*
G01X3089910Y-1446784D01*
G01X3099054Y-1443736D01*
G01X3102102Y-1440688D01*
G01X3105404Y-1434338D01*
G01X3105404Y-1428242D01*
G01X3102102Y-1422146D01*
G01X3099054Y-1419098D01*
G01X3089910Y-1415796D01*
G01X3061970Y-1415796D01*
G01X3083560Y-1415796D02*
G01X3105404Y-1381760D01*
G01X3178810Y-1446784D02*
G01X3147822Y-1381760D01*
G01X3135630Y-1446784D02*
G01X3178810Y-1446784D01*
G01X3328416Y-503936D02*
G01X3393440Y-503936D01*
G01X3328416Y-503936D02*
G01X3328416Y-531876D01*
G01X3331464Y-541020D01*
G01X3334512Y-544068D01*
G01X3340862Y-547370D01*
G01X3346958Y-547370D01*
G01X3353054Y-544068D01*
G01X3356102Y-541020D01*
G01X3359404Y-531876D01*
G01X3359404Y-503936D01*
G01X3359404Y-525526D02*
G01X3393440Y-547370D01*
G01X3328416Y-592836D02*
G01X3331464Y-583692D01*
G01X3337560Y-580644D01*
G01X3343910Y-580644D01*
G01X3350006Y-583692D01*
G01X3353054Y-589788D01*
G01X3356102Y-602234D01*
G01X3359404Y-611632D01*
G01X3365500Y-617728D01*
G01X3371596Y-620776D01*
G01X3380994Y-620776D01*
G01X3387090Y-617728D01*
G01X3390392Y-614680D01*
G01X3393440Y-605282D01*
G01X3393440Y-592836D01*
G01X3390392Y-583692D01*
G01X3387090Y-580644D01*
G01X3380994Y-577596D01*
G01X3371596Y-577596D01*
G01X3365500Y-580644D01*
G01X3359404Y-586740D01*
G01X3356102Y-596138D01*
G01X3353054Y-608330D01*
G01X3350006Y-614680D01*
G01X3343910Y-617728D01*
G01X3337560Y-617728D01*
G01X3331464Y-614680D01*
G01X3328416Y-605282D01*
G01X3328416Y-592836D01*
G01X3581931Y-506984D02*
G01X3646955Y-506984D01*
G01X3581931Y-506984D02*
G01X3581931Y-534924D01*
G01X3584979Y-544068D01*
G01X3588027Y-547116D01*
G01X3594377Y-550418D01*
G01X3600473Y-550418D01*
G01X3606569Y-547116D01*
G01X3609617Y-544068D01*
G01X3612919Y-534924D01*
G01X3612919Y-506984D01*
G01X3612919Y-528574D02*
G01X3646955Y-550418D01*
G01X3603521Y-620776D02*
G01X3612919Y-617728D01*
G01X3619015Y-611378D01*
G01X3622063Y-602234D01*
G01X3622063Y-599186D01*
G01X3619015Y-589788D01*
G01X3612919Y-583692D01*
G01X3603521Y-580644D01*
G01X3600473Y-580644D01*
G01X3591075Y-583692D01*
G01X3584979Y-589788D01*
G01X3581931Y-599186D01*
G01X3581931Y-602234D01*
G01X3584979Y-611378D01*
G01X3591075Y-617728D01*
G01X3603521Y-620776D01*
G01X3619015Y-620776D01*
G01X3634509Y-617728D01*
G01X3643907Y-611378D01*
G01X3646955Y-602234D01*
G01X3646955Y-595884D01*
G01X3643907Y-586740D01*
G01X3637557Y-583692D01*
G01X4090416Y-458470D02*
G01X4155440Y-458470D01*
G01X4090416Y-458470D02*
G01X4090416Y-486410D01*
G01X4093464Y-495554D01*
G01X4096512Y-498602D01*
G01X4102862Y-501904D01*
G01X4108958Y-501904D01*
G01X4115054Y-498602D01*
G01X4118102Y-495554D01*
G01X4121404Y-486410D01*
G01X4121404Y-458470D01*
G01X4121404Y-480060D02*
G01X4155440Y-501904D01*
G01X4102862Y-532130D02*
G01X4099560Y-538226D01*
G01X4090416Y-547370D01*
G01X4155440Y-547370D01*
G01X4090416Y-596138D02*
G01X4093464Y-586740D01*
G01X4102862Y-580644D01*
G01X4118102Y-577596D01*
G01X4127500Y-577596D01*
G01X4142994Y-580644D01*
G01X4152392Y-586740D01*
G01X4155440Y-596138D01*
G01X4155440Y-602234D01*
G01X4152392Y-611632D01*
G01X4142994Y-617728D01*
G01X4127500Y-620776D01*
G01X4118102Y-620776D01*
G01X4102862Y-617728D01*
G01X4093464Y-611632D01*
G01X4090416Y-602234D01*
G01X4090416Y-596138D01*
G01X3835931Y-486410D02*
G01X3900955Y-486410D01*
G01X3835931Y-486410D02*
G01X3835931Y-514350D01*
G01X3838979Y-523494D01*
G01X3842027Y-526542D01*
G01X3848377Y-529844D01*
G01X3854473Y-529844D01*
G01X3860569Y-526542D01*
G01X3863617Y-523494D01*
G01X3866919Y-514350D01*
G01X3866919Y-486410D01*
G01X3866919Y-508000D02*
G01X3900955Y-529844D01*
G01X3848377Y-560070D02*
G01X3845075Y-566166D01*
G01X3835931Y-575310D01*
G01X3900955Y-575310D01*
G01X3848377Y-605536D02*
G01X3845075Y-611632D01*
G01X3835931Y-620776D01*
G01X3900955Y-620776D01*
G04 Text End*

G04 PolygonModel Start*
G01X2940738Y-2070125D02*
G01X3036626Y-2070125D01*
G01X3036626Y-2070125D02*
G01X3036626Y-2202246D01*
G01X3036626Y-2202246D02*
G01X2940738Y-2202246D01*
G01X2855496Y-2070125D02*
G01X2759608Y-2070125D01*
G01X2759608Y-2070125D02*
G01X2759608Y-2202246D01*
G01X2759608Y-2202246D02*
G01X2855496Y-2202246D01*
G01X2942466Y-1817731D02*
G01X3038353Y-1817731D01*
G01X3038353Y-1817731D02*
G01X3038353Y-1949852D01*
G01X3038353Y-1949852D02*
G01X2942466Y-1949852D01*
G01X2857223Y-1817731D02*
G01X2761336Y-1817731D01*
G01X2761336Y-1817731D02*
G01X2761336Y-1949852D01*
G01X2761336Y-1949852D02*
G01X2857223Y-1949852D01*
G01X2942466Y-1565338D02*
G01X3038353Y-1565338D01*
G01X3038353Y-1565338D02*
G01X3038353Y-1697458D01*
G01X3038353Y-1697458D02*
G01X2942466Y-1697458D01*
G01X2857223Y-1565338D02*
G01X2761336Y-1565338D01*
G01X2761336Y-1565338D02*
G01X2761336Y-1697458D01*
G01X2761336Y-1697458D02*
G01X2857223Y-1697458D01*
G01X2942466Y-1312944D02*
G01X3038353Y-1312944D01*
G01X3038353Y-1312944D02*
G01X3038353Y-1445064D01*
G01X3038353Y-1445064D02*
G01X2942466Y-1445064D01*
G01X2857223Y-1312944D02*
G01X2761336Y-1312944D01*
G01X2761336Y-1312944D02*
G01X2761336Y-1445064D01*
G01X2761336Y-1445064D02*
G01X2857223Y-1445064D01*
G01X3425210Y-823671D02*
G01X3425210Y-919559D01*
G01X3425210Y-919559D02*
G01X3293090Y-919559D01*
G01X3293090Y-919559D02*
G01X3293090Y-823671D01*
G01X3425210Y-738429D02*
G01X3425210Y-642541D01*
G01X3425210Y-642541D02*
G01X3293090Y-642541D01*
G01X3293090Y-642541D02*
G01X3293090Y-738429D01*
G01X3679210Y-823671D02*
G01X3679210Y-919559D01*
G01X3679210Y-919559D02*
G01X3547090Y-919559D01*
G01X3547090Y-919559D02*
G01X3547090Y-823671D01*
G01X3679210Y-738429D02*
G01X3679210Y-642541D01*
G01X3679210Y-642541D02*
G01X3547090Y-642541D01*
G01X3547090Y-642541D02*
G01X3547090Y-738429D01*
G01X4187210Y-823671D02*
G01X4187210Y-919559D01*
G01X4187210Y-919559D02*
G01X4055090Y-919559D01*
G01X4055090Y-919559D02*
G01X4055090Y-823671D01*
G01X4187210Y-738429D02*
G01X4187210Y-642541D01*
G01X4187210Y-642541D02*
G01X4055090Y-642541D01*
G01X4055090Y-642541D02*
G01X4055090Y-738429D01*
G01X3933210Y-823671D02*
G01X3933210Y-919559D01*
G01X3933210Y-919559D02*
G01X3801090Y-919559D01*
G01X3801090Y-919559D02*
G01X3801090Y-823671D01*
G01X3933210Y-738429D02*
G01X3933210Y-642541D01*
G01X3933210Y-642541D02*
G01X3801090Y-642541D01*
G01X3801090Y-642541D02*
G01X3801090Y-738429D01*

M02*

