G04 Layer: DrillDrawingLayer*
G04 EasyEDA Pro v2.2.27.1, 2024-09-16 12:01:29*
G04 Gerber Generator version 0.3*
G04 Scale: 100 percent, Rotated: No, Reflected: No*
G04 Dimensions in millimeters*
G04 Leading zeros omitted, absolute positions, 3 integers and 5 decimals*
%FSLAX35Y35*%
%MOMM*%
%AMIconRect*4,1,4,0.2,-0.2,-0.2,-0.2,-0.2,0.2,0.2,0.2,0.2,-0.2,0*4,0,4,0.166667,-0.166667,0.166667,0.166667,-0.166667,0.166667,-0.166667,-0.166667,0.166667,-0.166667,0*%
%AMIconTriangle*4,1,3,-0.242567,0.171767,0.242567,0.171767,0,-0.2706,-0.242567,0.171767,0*4,0,3,-0.189767,0.1386,0,-0.1953,0.190167,0.1386,-0.189767,0.1386,0*%
%AMIconStar6*4,1,12,0.0862,0.1492,0.213233,0.123367,0.172367,0,0.213233,-0.1229,0.0862,-0.148733,0,-0.245767,-0.085767,-0.148733,-0.213267,-0.1229,-0.171933,0,-0.213267,0.1229,-0.085767,0.1492,0,0.245767,0.0862,0.1492,0*4,0,12,-0.000333,0.195333,-0.064333,0.122667,-0.169667,0.097667,-0.138333,-0.005333,-0.169667,-0.098,-0.064333,-0.122667,-0.000333,-0.195667,0.064333,-0.122667,0.169667,-0.098,0.138667,0.005,0.169667,0.098,0.064333,0.122333,-0.000333,0.195333,0*%
%AMIconStar4*4,1,8,-0.222667,0.222667,0,0.144667,0.222667,0.222667,0.144667,0,0.222667,-0.222667,0,-0.144667,-0.217433,-0.222667,-0.144667,0,-0.222667,0.222667,0*4,0,8,0.166667,-0.166667,0.108,0,0.166667,0.166667,0,0.108,-0.166667,0.166667,-0.108,0,-0.166667,-0.166667,0,-0.108,0.166667,-0.166667,0*%
%ADD10IconRect*%
%ADD11C,0.44X0.373333*%
%ADD12IconTriangle*%
%ADD13IconStar6*%
%ADD14IconStar4*%
G75*


G04 Drill Drawing Start*
G54D10*
G01X242800Y-4567208D03*
G01X242800Y-179349D03*
G01X6953250Y-4540250D03*
G01X6953250Y-179349D03*
G54D11*
G01X186144Y-653847D03*
G01X186144Y-1517853D03*
G01X561150Y-653847D03*
G01X561150Y-1517853D03*
G54D12*
G01X233490Y-4108450D03*
G01X233490Y-3500607D03*
G01X233490Y-2892764D03*
G01X234950Y-2305050D03*
G01X487490Y-4108450D03*
G01X487490Y-3500607D03*
G01X487490Y-2892764D03*
G01X488950Y-2305050D03*
G01X6699250Y-3651250D03*
G01X6953250Y-3651250D03*
G54D13*
G01X1149350Y-285750D03*
G01X1403350Y-285750D03*
G01X1657350Y-285750D03*
G01X1911350Y-285750D03*
G01X2254750Y-679450D03*
G01X2254750Y-285750D03*
G01X2508750Y-679450D03*
G01X2508750Y-285750D03*
G01X2533650Y-2901950D03*
G01X2533650Y-2647950D03*
G01X2533650Y-2393950D03*
G01X2533650Y-2139950D03*
G01X2533650Y-1885950D03*
G01X2533650Y-1631950D03*
G01X2533650Y-1377950D03*
G01X2533650Y-3663950D03*
G01X2533650Y-3409950D03*
G01X2533650Y-3155950D03*
G01X2762750Y-679450D03*
G01X2762750Y-285750D03*
G01X2838450Y-4362450D03*
G01X3016750Y-679450D03*
G01X3016750Y-285750D03*
G01X3092450Y-4362450D03*
G01X3346450Y-4362450D03*
G01X3359150Y-285750D03*
G01X3600450Y-4362450D03*
G01X3613150Y-285750D03*
G01X3867150Y-285750D03*
G01X3917950Y-4362450D03*
G01X4121150Y-285750D03*
G01X4171950Y-4362450D03*
G01X4375150Y-285750D03*
G01X4425950Y-4362450D03*
G01X4629150Y-285750D03*
G01X4679950Y-4362450D03*
G01X4883150Y-285750D03*
G01X4933950Y-4362450D03*
G01X5137150Y-285750D03*
G01X5187950Y-4362450D03*
G01X5391150Y-285750D03*
G01X5441950Y-4362450D03*
G01X5645150Y-285750D03*
G01X5695950Y-4362450D03*
G01X5949950Y-4362450D03*
G01X6203950Y-4362450D03*
G01X6877050Y-3041650D03*
G01X6877050Y-2787650D03*
G01X6877050Y-2533650D03*
G01X6877050Y-2279650D03*
G01X6877050Y-2025650D03*
G01X6877050Y-1771650D03*
G01X6877050Y-1517650D03*
G01X6877050Y-1263650D03*
G01X6877050Y-1009650D03*
G01X6877050Y-755650D03*
G54D14*
G01X641347Y-4572000D03*
G01X641347Y-4419600D03*
G01X727207Y-4572000D03*
G01X727207Y-4419600D03*
G01X813067Y-4572000D03*
G01X813067Y-4419600D03*
G01X898927Y-4572000D03*
G01X898927Y-4419600D03*
G01X1314447Y-2692400D03*
G01X1365250Y-641350D03*
G01X1400307Y-2692400D03*
G01X1416047Y-2514600D03*
G01X1486167Y-2692400D03*
G01X1501907Y-2514600D03*
G01X1572027Y-2692400D03*
G01X1587767Y-2514600D03*
G01X1673627Y-2514600D03*
G01X2495547Y-1003300D03*
G01X2581407Y-1003300D03*
G01X2667267Y-1003300D03*
G01X2753127Y-1003300D03*
G01X3289300Y-1041400D03*
G01X3606800Y-3092453D03*
G01X3606800Y-3006593D03*
G01X3606800Y-2920733D03*
G01X3606800Y-2834873D03*
G01X3619652Y-2254250D03*
G01X3625850Y-3651250D03*
G01X3797300Y-3092453D03*
G01X3797300Y-3006593D03*
G01X3797300Y-2920733D03*
G01X3797300Y-2834873D03*
G01X4193546Y-3079750D03*
G01X4295140Y-3079750D03*
G01X4455160Y-3079750D03*
G01X5016500Y-882653D03*
G01X5016500Y-796793D03*
G01X5016500Y-710933D03*
G01X5016500Y-625073D03*
G01X5073650Y-1339850D03*
G01X5124450Y-2730449D03*
G01X5124450Y-2650439D03*
G01X5124450Y-2330450D03*
G01X5124450Y-2170455D03*
G01X5429250Y-774548D03*
G01X5727700Y-3309399D03*
G01X5727700Y-1752600D03*
G01X5759450Y-1200150D03*
G01X5813560Y-3309399D03*
G01X5813560Y-1752600D03*
G01X5899420Y-3309399D03*
G01X5899420Y-1752600D03*
G01X5985280Y-3309399D03*
G01X5985280Y-1752600D03*
G01X5988047Y-1524000D03*
G01X6073907Y-1524000D03*
G01X6146800Y-3130553D03*
G01X6146800Y-3044693D03*
G01X6146800Y-2958833D03*
G01X6146800Y-2872973D03*
G01X6159767Y-1524000D03*
G01X6172200Y-2051053D03*
G01X6172200Y-1965193D03*
G01X6172200Y-1879333D03*
G01X6172200Y-1793473D03*
G01X6245627Y-1524000D03*
G01X6521447Y-4330700D03*
G01X6607307Y-4330700D03*
G01X6693167Y-4330700D03*
G01X6779027Y-4330700D03*
G04 Drill Drawing End*

M02*

