G04 Layer: BottomSolderMaskLayer*
G04 EasyEDA Pro v2.2.27.1, 2024-09-16 12:01:29*
G04 Gerber Generator version 0.3*
G04 Scale: 100 percent, Rotated: No, Reflected: No*
G04 Dimensions in millimeters*
G04 Leading zeros omitted, absolute positions, 3 integers and 5 decimals*
%FSLAX35Y35*%
%MOMM*%
%AMRoundRect*1,1,$1,$2,$3*1,1,$1,$4,$5*1,1,$1,0-$2,0-$3*1,1,$1,0-$4,0-$5*20,1,$1,$2,$3,$4,$5,0*20,1,$1,$4,$5,0-$2,0-$3,0*20,1,$1,0-$2,0-$3,0-$4,0-$5,0*20,1,$1,0-$4,0-$5,$2,$3,0*4,1,4,$2,$3,$4,$5,0-$2,0-$3,0-$4,0-$5,$2,$3,0*%
%ADD10C,1.8016*%
%ADD11RoundRect,0.09579X-0.8529X-0.7903X-0.8529X0.7903*%
%ADD12RoundRect,0.09579X-0.7903X0.8529X0.7903X0.8529*%
%ADD13RoundRect,0.09579X0.8529X0.7903X0.8529X-0.7903*%
%ADD14RoundRect,0.09579X0.7903X-0.8529X-0.7903X-0.8529*%
%ADD15RoundRect,0.09618X-0.85271X0.85271X0.85271X0.85271*%
%ADD16O,2.10002X1.35004*%
%ADD17RoundRect,0.09618X0.85271X-0.85271X-0.85271X-0.85271*%
%ADD18RoundRect,0.09138X-0.40835X0.43712X0.40835X0.43712*%
%ADD19RoundRect,0.09138X0.43712X0.40835X0.43712X-0.40835*%
%ADD20C,1.6256*%
G75*


G04 Pad Start*
G54D10*
G01X2533650Y-1377950D03*
G01X2533650Y-1631950D03*
G01X2533650Y-1885950D03*
G01X2533650Y-2139950D03*
G01X2533650Y-2393950D03*
G01X2533650Y-2647950D03*
G01X2533650Y-2901950D03*
G01X2533650Y-3155950D03*
G01X2533650Y-3409950D03*
G54D11*
G01X2533650Y-3663950D03*
G54D10*
G01X5645150Y-285750D03*
G01X5391150Y-285750D03*
G01X5137150Y-285750D03*
G01X4883150Y-285750D03*
G01X4629150Y-285750D03*
G01X4375150Y-285750D03*
G01X4121150Y-285750D03*
G01X3867150Y-285750D03*
G01X3613150Y-285750D03*
G54D12*
G01X3359150Y-285750D03*
G54D10*
G01X6877050Y-3041650D03*
G01X6877050Y-2787650D03*
G01X6877050Y-2533650D03*
G01X6877050Y-2279650D03*
G01X6877050Y-2025650D03*
G01X6877050Y-1771650D03*
G01X6877050Y-1517650D03*
G01X6877050Y-1263650D03*
G01X6877050Y-1009650D03*
G54D13*
G01X6877050Y-755650D03*
G54D10*
G01X3917950Y-4362450D03*
G01X4171950Y-4362450D03*
G01X4425950Y-4362450D03*
G01X4679950Y-4362450D03*
G01X4933950Y-4362450D03*
G01X5187950Y-4362450D03*
G01X5441950Y-4362450D03*
G01X5695950Y-4362450D03*
G01X5949950Y-4362450D03*
G54D14*
G01X6203950Y-4362450D03*
G54D15*
G01X2254750Y-285750D03*
G54D10*
G01X2508750Y-285750D03*
G01X2762750Y-285750D03*
G01X3016750Y-285750D03*
G54D15*
G01X1149350Y-285750D03*
G54D10*
G01X1403350Y-285750D03*
G01X1657350Y-285750D03*
G01X1911350Y-285750D03*
G54D15*
G01X2254750Y-679450D03*
G54D10*
G01X2508750Y-679450D03*
G01X2762750Y-679450D03*
G01X3016750Y-679450D03*
G54D16*
G01X561150Y-1517853D03*
G01X561150Y-653847D03*
G01X186144Y-653847D03*
G01X186144Y-1517853D03*
G54D17*
G01X3600450Y-4362450D03*
G54D10*
G01X3346450Y-4362450D03*
G01X3092450Y-4362450D03*
G01X2838450Y-4362450D03*
G54D18*
G01X2973454Y-2136186D03*
G01X2822781Y-2136186D03*
G01X2975181Y-1883792D03*
G01X2824508Y-1883792D03*
G01X2975181Y-1631398D03*
G01X2824508Y-1631398D03*
G01X2975181Y-1379004D03*
G01X2824508Y-1379004D03*
G54D19*
G01X3359150Y-856386D03*
G01X3359150Y-705714D03*
G01X3613150Y-856386D03*
G01X3613150Y-705714D03*
G01X4121150Y-856386D03*
G01X4121150Y-705714D03*
G01X3867150Y-856386D03*
G01X3867150Y-705714D03*
G54D20*
G01X6699250Y-3651250D03*
G01X6953250Y-3651250D03*
G01X487490Y-2892764D03*
G01X233490Y-2892764D03*
G01X487490Y-3500607D03*
G01X233490Y-3500607D03*
G01X487490Y-4108450D03*
G01X233490Y-4108450D03*
G01X488950Y-2305050D03*
G01X234950Y-2305050D03*
G04 Pad End*

M02*

