G04 Layer: TopSolderMaskLayer*
G04 EasyEDA Pro v2.2.27.1, 2024-09-16 12:01:29*
G04 Gerber Generator version 0.3*
G04 Scale: 100 percent, Rotated: No, Reflected: No*
G04 Dimensions in millimeters*
G04 Leading zeros omitted, absolute positions, 3 integers and 5 decimals*
%FSLAX35Y35*%
%MOMM*%
%AMRoundRect*1,1,$1,$2,$3*1,1,$1,$4,$5*1,1,$1,0-$2,0-$3*1,1,$1,0-$4,0-$5*20,1,$1,$2,$3,$4,$5,0*20,1,$1,$4,$5,0-$2,0-$3,0*20,1,$1,0-$2,0-$3,0-$4,0-$5,0*20,1,$1,0-$4,0-$5,$2,$3,0*4,1,4,$2,$3,$4,$5,0-$2,0-$3,0-$4,0-$5,$2,$3,0*%
%ADD10RoundRect,0.09131X0.40514X-0.45514X-0.40514X-0.45514*%
%ADD11C,1.8016*%
%ADD12RoundRect,0.09579X-0.8529X-0.7903X-0.8529X0.7903*%
%ADD13RoundRect,0.09579X-0.7903X0.8529X0.7903X0.8529*%
%ADD14RoundRect,0.09579X0.8529X0.7903X0.8529X-0.7903*%
%ADD15RoundRect,0.09579X0.7903X-0.8529X-0.7903X-0.8529*%
%ADD16RoundRect,0.09618X-0.85271X0.85271X0.85271X0.85271*%
%ADD17RoundRect,0.09138X0.43712X0.40835X0.43712X-0.40835*%
%ADD18O,0.52159X1.7716*%
%ADD19O,1.7716X0.52159*%
%ADD20RoundRect,0.09368X-0.55396X-1.25396X-0.55396X1.25396*%
%ADD21RoundRect,0.09754X-1.80203X-1.17203X-1.80203X1.17203*%
%ADD22RoundRect,0.08891X0.60556X0.35556X0.60556X-0.35556*%
%ADD23RoundRect,0.09002X0.605X0.405X0.605X-0.405*%
%ADD24RoundRect,0.09093X0.60455X0.45455X0.60455X-0.45455*%
%ADD25O,2.10002X1.35004*%
%ADD26RoundRect,0.09618X0.85271X-0.85271X-0.85271X-0.85271*%
%ADD27RoundRect,0.09131X-0.45514X-0.40514X-0.45514X0.40514*%
%ADD28RoundRect,0.09131X0.45514X0.40514X0.45514X-0.40514*%
%ADD29RoundRect,0.09131X-0.40514X0.45514X0.40514X0.45514*%
%ADD30C,1.6256*%
%ADD31RoundRect,0.09138X0.40835X-0.43712X-0.40835X-0.43712*%
%ADD32RoundRect,0.09138X-0.40835X0.43712X0.40835X0.43712*%
%ADD33RoundRect,0.095X-0.6833X-0.7683X-0.6833X0.7683*%
%ADD34RoundRect,0.095X-0.7683X0.6833X0.7683X0.6833*%
%ADD35RoundRect,0.09516X-0.70322X-2.75321X-0.70322X2.75321*%
G75*


G04 Pad Start*
G54D10*
G01X3479648Y-2254250D03*
G01X3619652Y-2254250D03*
G54D11*
G01X2533650Y-1377950D03*
G01X2533650Y-1631950D03*
G01X2533650Y-1885950D03*
G01X2533650Y-2139950D03*
G01X2533650Y-2393950D03*
G01X2533650Y-2647950D03*
G01X2533650Y-2901950D03*
G01X2533650Y-3155950D03*
G01X2533650Y-3409950D03*
G54D12*
G01X2533650Y-3663950D03*
G54D11*
G01X5645150Y-285750D03*
G01X5391150Y-285750D03*
G01X5137150Y-285750D03*
G01X4883150Y-285750D03*
G01X4629150Y-285750D03*
G01X4375150Y-285750D03*
G01X4121150Y-285750D03*
G01X3867150Y-285750D03*
G01X3613150Y-285750D03*
G54D13*
G01X3359150Y-285750D03*
G54D11*
G01X6877050Y-3041650D03*
G01X6877050Y-2787650D03*
G01X6877050Y-2533650D03*
G01X6877050Y-2279650D03*
G01X6877050Y-2025650D03*
G01X6877050Y-1771650D03*
G01X6877050Y-1517650D03*
G01X6877050Y-1263650D03*
G01X6877050Y-1009650D03*
G54D14*
G01X6877050Y-755650D03*
G54D11*
G01X3917950Y-4362450D03*
G01X4171950Y-4362450D03*
G01X4425950Y-4362450D03*
G01X4679950Y-4362450D03*
G01X4933950Y-4362450D03*
G01X5187950Y-4362450D03*
G01X5441950Y-4362450D03*
G01X5695950Y-4362450D03*
G01X5949950Y-4362450D03*
G54D15*
G01X6203950Y-4362450D03*
G54D16*
G01X2254750Y-285750D03*
G54D11*
G01X2508750Y-285750D03*
G01X2762750Y-285750D03*
G01X3016750Y-285750D03*
G54D16*
G01X1149350Y-285750D03*
G54D11*
G01X1403350Y-285750D03*
G01X1657350Y-285750D03*
G01X1911350Y-285750D03*
G54D16*
G01X2254750Y-679450D03*
G54D11*
G01X2508750Y-679450D03*
G01X2762750Y-679450D03*
G01X3016750Y-679450D03*
G54D17*
G01X869950Y-1288186D03*
G01X869950Y-1137514D03*
G01X1047750Y-1288186D03*
G01X1047750Y-1137514D03*
G54D18*
G01X3975151Y-2903957D03*
G01X4055161Y-2903957D03*
G01X4135145Y-2903957D03*
G01X4215155Y-2903957D03*
G01X4295140Y-2903957D03*
G01X4375150Y-2903957D03*
G01X4455160Y-2903957D03*
G01X4535145Y-2903957D03*
G01X4615155Y-2903957D03*
G01X4695139Y-2903957D03*
G01X4775149Y-2903957D03*
G54D19*
G01X4948657Y-2730449D03*
G01X4948657Y-2650439D03*
G01X4948657Y-2570455D03*
G01X4948657Y-2490445D03*
G01X4948657Y-2410460D03*
G01X4948657Y-2330450D03*
G01X4948657Y-2250440D03*
G01X4948657Y-2170455D03*
G01X4948657Y-2090445D03*
G01X4948657Y-2010461D03*
G01X4948657Y-1930451D03*
G54D18*
G01X4775149Y-1756943D03*
G01X4695139Y-1756943D03*
G01X4615155Y-1756943D03*
G01X4535145Y-1756943D03*
G01X4455160Y-1756943D03*
G01X4375150Y-1756943D03*
G01X4295140Y-1756943D03*
G01X4215155Y-1756943D03*
G01X4135145Y-1756943D03*
G01X4055161Y-1756943D03*
G01X3975151Y-1756943D03*
G54D19*
G01X3801643Y-1930451D03*
G01X3801643Y-2010461D03*
G01X3801643Y-2090445D03*
G01X3801643Y-2170455D03*
G01X3801643Y-2250440D03*
G01X3801643Y-2330450D03*
G01X3801643Y-2410460D03*
G01X3801643Y-2490445D03*
G01X3801643Y-2570455D03*
G01X3801643Y-2650439D03*
G01X3801643Y-2730449D03*
G54D20*
G01X1823847Y-941255D03*
G01X1593850Y-941255D03*
G01X1363853Y-941255D03*
G54D21*
G01X1593850Y-1535247D03*
G54D22*
G01X613956Y-1035863D03*
G01X613956Y-1135863D03*
G54D23*
G01X613956Y-933856D03*
G01X613956Y-1237844D03*
G54D24*
G01X613956Y-810844D03*
G01X613956Y-1360856D03*
G54D25*
G01X561150Y-1517853D03*
G01X561150Y-653847D03*
G01X186144Y-653847D03*
G01X186144Y-1517853D03*
G54D26*
G01X3600450Y-4362450D03*
G54D11*
G01X3346450Y-4362450D03*
G01X3092450Y-4362450D03*
G01X2838450Y-4362450D03*
G54D27*
G01X6419850Y-774548D03*
G01X6419850Y-914552D03*
G01X5429250Y-774548D03*
G01X5429250Y-914552D03*
G01X5358053Y-2743048D03*
G01X5358053Y-2883052D03*
G54D28*
G01X5358053Y-2321569D03*
G01X5358053Y-2181564D03*
G54D29*
G01X1664627Y-4235450D03*
G01X1524622Y-4235450D03*
G54D30*
G01X6699250Y-3651250D03*
G01X6953250Y-3651250D03*
G01X487490Y-2892764D03*
G01X233490Y-2892764D03*
G01X487490Y-3500607D03*
G01X233490Y-3500607D03*
G01X487490Y-4108450D03*
G01X233490Y-4108450D03*
G01X488950Y-2305050D03*
G01X234950Y-2305050D03*
G54D31*
G01X6750914Y-4006850D03*
G01X6901586Y-4006850D03*
G54D32*
G01X830986Y-2892764D03*
G01X680314Y-2892764D03*
G01X830986Y-3506957D03*
G01X680314Y-3506957D03*
G01X830986Y-4121150D03*
G01X680314Y-4121150D03*
G54D31*
G01X1518514Y-4044950D03*
G01X1669186Y-4044950D03*
G54D32*
G01X829259Y-2305050D03*
G01X678586Y-2305050D03*
G54D33*
G01X6084055Y-1073455D03*
G01X6084055Y-666445D03*
G01X5764504Y-1073455D03*
G01X5764504Y-666445D03*
G54D34*
G01X1390345Y-4502150D03*
G01X1797355Y-4502150D03*
G54D35*
G01X5848350Y-2080476D03*
G01X5848350Y-2980474D03*
G54D29*
G01X1184643Y-2022934D03*
G01X1044639Y-2022934D03*
G54D10*
G01X1043686Y-1832434D03*
G01X1183691Y-1832434D03*
G54D29*
G01X1790852Y-666750D03*
G01X1650848Y-666750D03*
G01X1589748Y-1832434D03*
G01X1449743Y-1832434D03*
G04 Pad End*

M02*

